<svg width="227" height="119" viewBox="0 0 227 119" fill="none" xmlns="http://www.w3.org/2000/svg">
<path d="M209.588 92.8714H10.6406C8.68275 92.8714 7.09375 93.7011 7.09375 94.7233V102.131C7.09375 109.28 18.2309 115.095 31.9219 115.095H138.328C152.019 115.095 163.156 109.28 163.156 102.131V96.5753H174.258C175.733 99.8274 180.965 102.311 187.623 102.628L208.656 103.626C208.964 103.641 209.276 103.648 209.585 103.648C212.146 103.648 214.639 103.148 216.544 102.241C218.679 101.22 219.906 99.77 219.906 98.2588C219.906 95.2882 215.278 92.8714 209.588 92.8714ZM156.062 102.131C156.062 107.237 148.107 111.391 138.328 111.391H31.9219C22.1431 111.391 14.1875 107.237 14.1875 102.131V96.5753H156.062V102.131ZM211.763 99.5033C211.089 99.8256 210.22 99.9848 209.298 99.9348L188.265 98.9366C185.324 98.7977 182.895 97.8717 181.696 96.5753H209.588C211.365 96.5753 212.812 97.3309 212.812 98.2588C212.812 98.7384 212.44 99.1811 211.763 99.5033Z" fill="black"/>
<path d="M39.0156 29.904C41.8247 29.904 44.2331 29.6818 46.2832 29.3318L42.7434 34.8729C42.3816 35.4377 42.566 36.0582 43.2329 36.5415C43.8997 37.0267 44.9708 37.3119 46.1094 37.3119H81.5781C82.7167 37.3119 83.7878 37.0267 84.4546 36.5415C85.1215 36.0582 85.3023 35.4377 84.9441 34.8729L81.4043 29.3318C83.4544 29.6818 85.8627 29.904 88.6719 29.904C97.2021 29.904 106.406 25.6556 106.406 18.7921C106.406 11.6565 93.0877 3.97629 63.8437 3.97629C34.5998 3.97629 21.2812 11.6565 21.2812 18.7921C21.2812 25.6556 30.4854 29.904 39.0156 29.904ZM63.8437 7.68025C91.8995 7.68025 99.3125 14.9493 99.3125 18.7921C99.3125 23.3684 93.79 26.2001 88.6719 26.2001C80.5212 26.2001 77.7475 23.6054 77.6588 23.5202C76.8253 22.6498 74.8497 22.2646 73.1295 22.6368C71.4092 23.0091 70.5332 24.011 71.1219 24.9333L76.6586 33.608H51.0289L56.5691 24.9333C57.1508 24.0221 56.2854 23.0424 54.597 22.6609C52.9087 22.2776 50.926 22.6498 50.0535 23.4943C49.94 23.6054 47.1663 26.2001 39.0156 26.2001C33.8975 26.2001 28.375 23.3684 28.375 18.7921C28.375 14.9493 35.788 7.68025 63.8437 7.68025Z" fill="black"/>
<path d="M115.578 56.0151L100.529 63.8749C95.1698 66.6733 92.2188 70.3939 92.2188 74.3516C92.2188 78.3092 95.1698 82.0299 100.529 84.8282C105.888 87.6266 113.014 89.1674 120.594 89.1674C128.173 89.1674 135.299 87.6266 140.658 84.8282L175.769 66.4955C189.598 59.2746 189.598 47.5256 175.769 40.3047C161.94 33.0839 139.435 33.0857 125.609 40.3047C117.682 44.4421 114.007 50.2517 115.578 56.0151ZM122.864 56.291C121.019 51.4222 123.921 46.4237 130.624 42.9234C141.691 37.1471 159.687 37.1471 170.754 42.9234C181.816 48.6998 181.816 58.1004 170.754 63.8768L135.643 82.2095C131.621 84.3078 126.279 85.4635 120.594 85.4635C114.908 85.4635 109.567 84.3078 105.544 82.2095C101.522 80.1112 99.3125 77.3203 99.3125 74.3516C99.3125 71.3828 101.526 68.5938 105.544 66.4936L121.888 57.9578C122.729 57.5226 123.094 56.8966 122.864 56.291Z" fill="black"/>
<path d="M153.197 55.0261C156.038 55.0261 158.712 54.4483 160.72 53.4001C162.731 52.35 163.837 50.9555 163.837 49.4702C163.837 47.9849 162.731 46.5904 160.723 45.5422C158.716 44.4939 160.723 45.5422 160.723 45.5422C156.705 43.4439 149.696 43.4439 145.677 45.5422C143.666 46.5922 142.56 47.9868 142.56 49.4721C142.56 50.9573 143.666 52.3519 145.674 53.4001C147.685 54.4483 150.356 55.0261 153.197 55.0261ZM150.693 48.1608C151.359 47.8108 152.25 47.6182 153.2 47.6182C154.151 47.6182 155.037 47.8108 155.708 48.1608C156.378 48.509 156.747 48.9739 156.747 49.4702C156.747 49.9665 156.378 50.4295 155.708 50.7795C154.371 51.4796 152.033 51.4796 150.693 50.7795C150.022 50.4314 149.653 49.9665 149.653 49.4702C149.653 48.9739 150.019 48.5109 150.693 48.1608Z" fill="black"/>
<path d="M163.156 7.68025V3.97629C143.599 3.97629 127.688 12.2843 127.688 22.4961H134.781C134.781 14.327 147.511 7.68025 163.156 7.68025Z" fill="black"/>
<path d="M24.8281 42.8679H31.9219C31.9219 36.7397 22.3772 31.756 10.6406 31.756V35.46C18.465 35.46 24.8281 38.7824 24.8281 42.8679Z" fill="black"/>
<path d="M92.2188 48.4238H99.3125C99.3125 43.3179 107.268 39.1639 117.047 39.1639V35.46C103.356 35.46 92.2188 41.2752 92.2188 48.4238Z" fill="black"/>
<path d="M170.25 3.97629H177.344V7.68025H170.25V3.97629Z" fill="black"/>
<path d="M148.969 85.4635H156.062V89.1674H148.969V85.4635Z" fill="black"/>
<path d="M12.2862 81.5335C15.6345 83.2837 20.0893 84.2467 24.828 84.2467C29.5666 84.2467 34.0179 83.2837 37.3697 81.5335C38.0897 81.1576 38.7459 80.7353 39.3631 80.2575C42.8142 80.0575 46.0028 79.3149 48.6701 78.1537L62.2191 86.6487C62.8575 87.0487 63.7868 87.2895 64.7835 87.3136C64.8367 87.3154 64.8899 87.3154 64.9431 87.3154C65.883 87.3154 66.7839 87.121 67.4508 86.7728L87.5261 76.2906C88.2319 75.922 88.6079 75.4164 88.5617 74.8979C88.5156 74.3775 88.0545 73.8923 87.292 73.5589L71.0331 66.4751C73.2499 65.0824 74.6722 63.4193 75.0482 61.6229C75.9668 61.3025 76.7755 60.958 77.4955 60.5821C84.4119 56.9726 84.4119 51.0962 77.4955 47.4867C74.1473 45.7366 69.6924 44.7736 64.9538 44.7736C61.3218 44.7736 57.8529 45.3403 54.9232 46.3941C51.9935 45.3403 48.5246 44.7736 44.8891 44.7736C40.154 44.7736 35.6991 45.7366 32.3509 47.4849C31.6344 47.859 30.9747 48.2812 30.3575 48.7627C26.3709 48.9924 22.6821 49.9128 19.8091 51.4148C16.9326 52.9167 15.1698 54.8428 14.73 56.9226C13.8078 57.243 12.9991 57.5874 12.2827 57.9634C6.15012 61.1636 5.45848 66.1436 10.1971 69.7494C5.46203 73.3533 6.15721 78.3333 12.2862 81.5335ZM65.1808 82.7207L53.1852 75.1979C54.7565 73.5367 55.3736 71.6458 54.87 69.7772L54.9764 69.7216C58.5694 69.9864 62.1978 69.6605 65.3829 68.8364L79.769 75.1053L65.1808 82.7207ZM17.3015 68.44C13.1552 66.2732 13.1552 62.7489 17.3015 60.5821C17.9541 60.2413 18.7628 59.9413 19.8446 59.6394C21.0044 59.3153 21.728 58.682 21.7174 57.9949C21.7032 56.4966 22.8062 55.091 24.828 54.0335C26.8355 52.9871 29.5027 52.4111 32.3544 52.4111H32.436C33.7448 52.4111 34.9472 52.0352 35.5644 51.4333C36.1425 50.8684 36.7171 50.448 37.3697 50.1073C41.3919 48.0071 48.3969 48.0071 52.4191 50.1073C53.7492 50.8018 56.1043 50.8018 57.4344 50.1073C61.4565 48.0071 68.4616 48.0071 72.4838 50.1073C76.6301 52.2741 76.6301 55.7984 72.4838 57.9652C71.8276 58.3079 71.0225 58.606 69.9478 58.906C68.7844 59.2301 68.0608 59.8635 68.0679 60.5525C68.0856 62.0526 66.9826 63.4582 64.9608 64.5138C62.2794 65.9121 58.4381 66.4362 54.7175 65.9251C53.4903 65.7565 52.1956 65.9399 51.3054 66.4047L48.5211 67.8567C47.6273 68.3234 47.2761 69.003 47.5989 69.6401C48.5849 71.5903 47.5741 73.5886 44.8962 74.9886C42.8886 76.035 40.2214 76.611 37.3697 76.611C37.3413 76.611 37.313 76.6091 37.2881 76.611C35.9793 76.611 34.7769 76.9869 34.1598 77.5907C33.5852 78.1518 33.0141 78.5741 32.358 78.9148C28.2081 81.0817 21.4584 81.0817 17.3086 78.9148C13.1623 76.748 13.1623 73.2237 17.3086 71.0569C18.6883 70.3346 18.6883 69.1623 17.3015 68.44Z" fill="black"/>
</svg>
