<svg width="358" height="177" viewBox="0 0 358 177" fill="none" xmlns="http://www.w3.org/2000/svg">
<rect x="-2" width="360" height="177" fill="#E0E0E0"/>
<path d="M278.588 102.871H79.6406C77.6828 102.871 76.0938 103.701 76.0938 104.723V112.131C76.0938 119.28 87.2309 125.095 100.922 125.095H207.328C221.019 125.095 232.156 119.28 232.156 112.131V106.575H243.258C244.733 109.827 249.965 112.311 256.623 112.628L277.656 113.626C277.964 113.641 278.276 113.648 278.585 113.648C281.146 113.648 283.639 113.148 285.544 112.241C287.679 111.22 288.906 109.77 288.906 108.259C288.906 105.288 284.278 102.871 278.588 102.871ZM225.062 112.131C225.062 117.237 217.107 121.391 207.328 121.391H100.922C91.1431 121.391 83.1875 117.237 83.1875 112.131V106.575H225.062V112.131ZM280.763 109.503C280.089 109.826 279.22 109.985 278.298 109.935L257.265 108.937C254.324 108.798 251.895 107.872 250.696 106.575H278.588C280.365 106.575 281.812 107.331 281.812 108.259C281.812 108.738 281.44 109.181 280.763 109.503Z" fill="black"/>
<path d="M108.016 39.904C110.825 39.904 113.233 39.6818 115.283 39.3318L111.743 44.8729C111.382 45.4377 111.566 46.0582 112.233 46.5415C112.9 47.0267 113.971 47.3119 115.109 47.3119H150.578C151.717 47.3119 152.788 47.0267 153.455 46.5415C154.121 46.0582 154.302 45.4377 153.944 44.8729L150.404 39.3318C152.454 39.6818 154.863 39.904 157.672 39.904C166.202 39.904 175.406 35.6556 175.406 28.7921C175.406 21.6565 162.088 13.9763 132.844 13.9763C103.6 13.9763 90.2812 21.6565 90.2812 28.7921C90.2812 35.6556 99.4854 39.904 108.016 39.904ZM132.844 17.6802C160.9 17.6802 168.312 24.9493 168.312 28.7921C168.312 33.3684 162.79 36.2001 157.672 36.2001C149.521 36.2001 146.747 33.6054 146.659 33.5202C145.825 32.6498 143.85 32.2646 142.129 32.6368C140.409 33.0091 139.533 34.011 140.122 34.9333L145.659 43.608H120.029L125.569 34.9333C126.151 34.0221 125.285 33.0424 123.597 32.6609C121.909 32.2776 119.926 32.6498 119.053 33.4943C118.94 33.6054 116.166 36.2001 108.016 36.2001C102.897 36.2001 97.375 33.3684 97.375 28.7921C97.375 24.9493 104.788 17.6802 132.844 17.6802Z" fill="black"/>
<path d="M184.578 66.0151L169.529 73.8749C164.17 76.6733 161.219 80.3939 161.219 84.3516C161.219 88.3092 164.17 92.0299 169.529 94.8282C174.888 97.6266 182.014 99.1674 189.594 99.1674C197.173 99.1674 204.299 97.6266 209.658 94.8282L244.769 76.4955C258.598 69.2746 258.598 57.5256 244.769 50.3047C230.94 43.0839 208.435 43.0857 194.609 50.3047C186.682 54.4421 183.007 60.2517 184.578 66.0151ZM191.864 66.291C190.019 61.4222 192.921 56.4237 199.624 52.9234C210.691 47.1471 228.687 47.1471 239.754 52.9234C250.816 58.6998 250.816 68.1004 239.754 73.8768L204.643 92.2095C200.621 94.3078 195.279 95.4635 189.594 95.4635C183.908 95.4635 178.567 94.3078 174.544 92.2095C170.522 90.1112 168.312 87.3203 168.312 84.3516C168.312 81.3828 170.526 78.5938 174.544 76.4936L190.888 67.9578C191.729 67.5226 192.094 66.8966 191.864 66.291Z" fill="black"/>
<path d="M222.197 65.0261C225.038 65.0261 227.712 64.4483 229.72 63.4001C231.731 62.35 232.837 60.9555 232.837 59.4702C232.837 57.9849 231.731 56.5904 229.723 55.5422C227.716 54.4939 229.723 55.5422 229.723 55.5422C225.705 53.4439 218.696 53.4439 214.677 55.5422C212.666 56.5922 211.56 57.9868 211.56 59.4721C211.56 60.9573 212.666 62.3519 214.674 63.4001C216.685 64.4483 219.356 65.0261 222.197 65.0261ZM219.693 58.1608C220.359 57.8108 221.25 57.6182 222.2 57.6182C223.151 57.6182 224.037 57.8108 224.708 58.1608C225.378 58.509 225.747 58.9739 225.747 59.4702C225.747 59.9665 225.378 60.4295 224.708 60.7795C223.371 61.4796 221.033 61.4796 219.693 60.7795C219.022 60.4314 218.653 59.9665 218.653 59.4702C218.653 58.9739 219.019 58.5109 219.693 58.1608Z" fill="black"/>
<path d="M232.156 17.6802V13.9763C212.599 13.9763 196.688 22.2843 196.688 32.4961H203.781C203.781 24.327 216.511 17.6802 232.156 17.6802Z" fill="black"/>
<path d="M93.8281 52.8679H100.922C100.922 46.7397 91.3772 41.756 79.6406 41.756V45.46C87.465 45.46 93.8281 48.7824 93.8281 52.8679Z" fill="black"/>
<path d="M161.219 58.4238H168.312C168.312 53.3179 176.268 49.1639 186.047 49.1639V45.46C172.356 45.46 161.219 51.2752 161.219 58.4238Z" fill="black"/>
<path d="M239.25 13.9763H246.344V17.6802H239.25V13.9763Z" fill="black"/>
<path d="M217.969 95.4635H225.062V99.1674H217.969V95.4635Z" fill="black"/>
<path d="M81.2862 91.5335C84.6345 93.2837 89.0893 94.2467 93.828 94.2467C98.5666 94.2467 103.018 93.2837 106.37 91.5335C107.09 91.1576 107.746 90.7353 108.363 90.2575C111.814 90.0575 115.003 89.3149 117.67 88.1537L131.219 96.6487C131.858 97.0487 132.787 97.2895 133.784 97.3136C133.837 97.3154 133.89 97.3154 133.943 97.3154C134.883 97.3154 135.784 97.121 136.451 96.7728L156.526 86.2906C157.232 85.922 157.608 85.4164 157.562 84.8979C157.516 84.3775 157.055 83.8923 156.292 83.5589L140.033 76.4751C142.25 75.0824 143.672 73.4193 144.048 71.6229C144.967 71.3025 145.775 70.958 146.496 70.5821C153.412 66.9726 153.412 61.0962 146.496 57.4867C143.147 55.7366 138.692 54.7736 133.954 54.7736C130.322 54.7736 126.853 55.3403 123.923 56.3941C120.993 55.3403 117.525 54.7736 113.889 54.7736C109.154 54.7736 104.699 55.7366 101.351 57.4849C100.634 57.859 99.9747 58.2812 99.3575 58.7627C95.3709 58.9924 91.6821 59.9128 88.8091 61.4148C85.9326 62.9167 84.1698 64.8428 83.73 66.9226C82.8078 67.243 81.9991 67.5874 81.2827 67.9634C75.1501 71.1636 74.4585 76.1436 79.1971 79.7494C74.462 83.3533 75.1572 88.3333 81.2862 91.5335ZM134.181 92.7207L122.185 85.1979C123.756 83.5367 124.374 81.6458 123.87 79.7772L123.976 79.7216C127.569 79.9864 131.198 79.6605 134.383 78.8364L148.769 85.1053L134.181 92.7207ZM86.3015 78.44C82.1552 76.2732 82.1552 72.7489 86.3015 70.5821C86.9541 70.2413 87.7628 69.9413 88.8446 69.6394C90.0044 69.3153 90.728 68.682 90.7174 67.9949C90.7032 66.4966 91.8062 65.091 93.828 64.0335C95.8355 62.9871 98.5027 62.4111 101.354 62.4111H101.436C102.745 62.4111 103.947 62.0352 104.564 61.4333C105.142 60.8684 105.717 60.448 106.37 60.1073C110.392 58.0071 117.397 58.0071 121.419 60.1073C122.749 60.8018 125.104 60.8018 126.434 60.1073C130.457 58.0071 137.462 58.0071 141.484 60.1073C145.63 62.2741 145.63 65.7984 141.484 67.9652C140.828 68.3079 140.022 68.606 138.948 68.906C137.784 69.2301 137.061 69.8635 137.068 70.5525C137.086 72.0526 135.983 73.4582 133.961 74.5138C131.279 75.9121 127.438 76.4362 123.717 75.9251C122.49 75.7565 121.196 75.9399 120.305 76.4047L117.521 77.8567C116.627 78.3234 116.276 79.003 116.599 79.6401C117.585 81.5903 116.574 83.5886 113.896 84.9886C111.889 86.035 109.221 86.611 106.37 86.611C106.341 86.611 106.313 86.6091 106.288 86.611C104.979 86.611 103.777 86.9869 103.16 87.5907C102.585 88.1518 102.014 88.5741 101.358 88.9148C97.2081 91.0817 90.4584 91.0817 86.3086 88.9148C82.1623 86.748 82.1623 83.2237 86.3086 81.0569C87.6883 80.3346 87.6883 79.1623 86.3015 78.44Z" fill="black"/>
<path d="M33.0625 153.509H29.6875C29.4456 153.509 29.2308 153.405 29.1542 153.25L28.7987 152.532C28.4151 151.757 27.343 151.237 26.1302 151.237H20.8697C19.657 151.237 18.5848 151.757 18.2024 152.531L17.8469 153.25C17.7693 153.405 17.5544 153.509 17.3125 153.509H13.9375C11.7662 153.509 10 154.698 10 156.159V162.974C10 164.436 11.7662 165.625 13.9375 165.625H33.0625C35.2338 165.625 37 164.436 37 162.974V156.159C37 154.698 35.2338 153.509 33.0625 153.509ZM35.875 162.974C35.875 164.018 34.6128 164.867 33.0625 164.867H13.9375C12.3873 164.867 11.125 164.018 11.125 162.974V156.159C11.125 155.116 12.3873 154.266 13.9375 154.266H17.3125C18.0393 154.266 18.6828 153.954 18.9134 153.49L19.27 152.77C19.4995 152.306 20.143 151.994 20.8698 151.994H26.1303C26.857 151.994 27.5005 152.306 27.7311 152.771L28.0866 153.49C28.3172 153.954 28.9608 154.266 29.6875 154.266H33.0625C34.6127 154.266 35.875 155.116 35.875 156.159V162.974H35.875Z" fill="black"/>
<path d="M23.5 155.023C19.7774 155.023 16.75 157.061 16.75 159.567C16.75 162.072 19.7774 164.11 23.5 164.11C27.2226 164.11 30.25 162.072 30.25 159.567C30.25 157.061 27.2226 155.023 23.5 155.023ZM23.5 163.353C20.3984 163.353 17.875 161.654 17.875 159.567C17.875 157.479 20.3984 155.78 23.5 155.78C26.6016 155.78 29.125 157.479 29.125 159.567C29.125 161.654 26.6016 163.353 23.5 163.353Z" fill="black"/>
<path d="M23.5 156.538C21.0182 156.538 19 157.896 19 159.567C19 159.776 19.252 159.945 19.5625 159.945C19.873 159.945 20.125 159.776 20.125 159.567C20.125 158.314 21.6392 157.295 23.5 157.295C23.8105 157.295 24.0625 157.125 24.0625 156.916C24.0625 156.707 23.8105 156.538 23.5 156.538Z" fill="black"/>
</svg>
