<svg width="28" height="20" viewBox="0 0 28 20" fill="none" xmlns="http://www.w3.org/2000/svg">
<g clip-path="url(#clip0)">
<path d="M23.2573 5.18144H19.8635C19.6203 5.18144 19.4042 5.07182 19.3273 4.90782L18.9698 4.14939C18.5841 3.33095 17.506 2.78133 16.2865 2.78133H10.9968C9.77728 2.78133 8.69918 3.33095 8.31458 4.1486L7.95712 4.90782C7.87906 5.07182 7.66298 5.18144 7.41979 5.18144H4.02604C1.8427 5.18144 0.0666504 6.43752 0.0666504 7.98158V15.1819C0.0666504 16.726 1.8427 17.9821 4.02604 17.9821H23.2573C25.4406 17.9821 27.2167 16.726 27.2167 15.1819V7.98158C27.2167 6.43752 25.4406 5.18144 23.2573 5.18144ZM26.0854 15.1819C26.0854 16.2844 24.8162 17.182 23.2573 17.182H4.02604C2.4672 17.182 1.19794 16.2844 1.19794 15.1819V7.98158C1.19794 6.87914 2.4672 5.9815 4.02604 5.9815H7.41979C8.15056 5.9815 8.79766 5.6519 9.02954 5.16145L9.38817 4.4014C9.61894 3.91099 10.266 3.58135 10.9968 3.58135H16.2865C17.0173 3.58135 17.6644 3.91095 17.8963 4.40219L18.2538 5.16141C18.4856 5.65182 19.1327 5.98146 19.8635 5.98146H23.2573C24.8161 5.98146 26.0854 6.8791 26.0854 7.98154V15.1819H26.0854Z" fill="black"/>
<path d="M13.6417 6.78152C9.89844 6.78152 6.85425 8.93442 6.85425 11.5817C6.85425 14.2291 9.89844 16.382 13.6417 16.382C17.3851 16.382 20.4292 14.2291 20.4292 11.5817C20.4292 8.93442 17.3851 6.78152 13.6417 6.78152ZM13.6417 15.5819C10.5229 15.5819 7.98548 13.7874 7.98548 11.5817C7.98548 9.37604 10.5229 7.58155 13.6417 7.58155C16.7606 7.58155 19.298 9.37604 19.298 11.5817C19.298 13.7874 16.7606 15.5819 13.6417 15.5819Z" fill="black"/>
<path d="M13.6417 8.38161C11.1462 8.38161 9.1167 9.81688 9.1167 11.5818C9.1167 11.8026 9.37012 11.9818 9.68234 11.9818C9.99456 11.9818 10.2479 11.8026 10.2479 11.5818C10.2479 10.2585 11.7706 9.18164 13.6417 9.18164C13.9539 9.18164 14.2073 9.00242 14.2073 8.78161C14.2073 8.5608 13.9539 8.38161 13.6417 8.38161Z" fill="black"/>
</g>
<defs>
<clipPath id="clip0">
<rect width="27.15" height="19.2009" fill="white" transform="translate(0.0666504 0.78125)"/>
</clipPath>
</defs>
</svg>
