<svg width="30" height="30" viewBox="0 0 30 30" fill="none" xmlns="http://www.w3.org/2000/svg">
<path d="M29.3258 12.3047C29.4552 12.3047 29.5602 12.4096 29.5602 12.539V15C29.5602 15.9211 29.4746 16.8216 29.3106 17.6953C28.0412 24.4812 22.0629 29.6095 14.897 29.5601C6.85632 29.5047 0.42137 23.008 0.439124 14.9672C0.456819 6.94083 6.96917 0.439453 14.9996 0.439453C18.934 0.439453 22.5037 2.00027 25.1246 4.53562C25.2192 4.62714 25.2217 4.77796 25.1286 4.87107L21.647 8.35258C21.5574 8.44223 21.4125 8.44452 21.3207 8.35715C19.6758 6.79136 17.4502 5.83007 14.9996 5.83007C9.93917 5.83007 5.86421 9.87608 5.82993 14.9364C5.79536 20.0298 9.91421 24.1699 14.9996 24.1699C19.1258 24.1699 22.6156 21.4441 23.7664 17.6953H15.234C15.1046 17.6953 14.9996 17.5903 14.9996 17.4609V12.539C14.9996 12.4096 15.1046 12.3047 15.234 12.3047H29.3258Z" fill="#2196F3"/>
<path d="M29.3257 12.3047H27.5678C27.6973 12.3047 27.8022 12.4096 27.8022 12.539V15C27.8022 15.9211 27.7167 16.8216 27.5526 17.6953C26.3416 24.1692 20.8448 29.1342 14.1196 29.5342C14.3769 29.5494 14.636 29.5583 14.8968 29.5601C22.0628 29.6095 28.0411 24.4812 29.3104 17.6953C29.4745 16.8216 29.56 15.9211 29.56 15V12.539C29.56 12.4096 29.4551 12.3047 29.3257 12.3047Z" fill="#1E88E5"/>
<path d="M6.67036 11.1597L2.24829 7.96463C4.72915 3.47753 9.50982 0.439453 14.9995 0.439453C18.9339 0.439453 22.5036 2.00027 25.1244 4.53562C25.219 4.62714 25.2215 4.77796 25.1284 4.87107L21.6469 8.35252C21.5575 8.442 21.4127 8.44475 21.321 8.3575C19.6761 6.79153 17.4503 5.83007 14.9995 5.83007C11.3063 5.83007 8.1229 8.01327 6.67036 11.1597Z" fill="#F44336"/>
<path d="M5.39392 10.2374L6.6705 11.1597C7.99631 8.28778 10.7644 6.21936 14.0456 5.88011C14.0704 5.87747 14.094 5.87419 14.1192 5.87179C13.8304 5.84442 13.5378 5.83007 13.2418 5.83007C9.90559 5.83007 6.99798 7.58893 5.39392 10.2374Z" fill="#E53935"/>
<path d="M23.3667 4.53562C23.4613 4.62714 23.4638 4.77796 23.3707 4.87107L20.5449 7.69686C20.8156 7.90276 21.0747 8.12301 21.3207 8.35709C21.4125 8.44452 21.5574 8.44217 21.647 8.35252L25.1286 4.87101C25.2217 4.7779 25.2192 4.62708 25.1246 4.53556C22.5037 2.00027 18.934 0.439453 14.9996 0.439453C14.7043 0.439453 14.4114 0.449297 14.1205 0.466641C17.7061 0.680214 20.9424 2.19047 23.3667 4.53562Z" fill="#E53935"/>
<path d="M25.6807 24.8953C23.0217 27.7646 19.2201 29.5605 14.9996 29.5605C9.29903 29.5605 4.36367 26.2845 1.97363 21.5121L6.48829 18.4183C7.84298 21.7892 11.1436 24.1699 14.9996 24.1699C17.4195 24.1699 19.6203 23.2324 21.2586 21.7007L25.6807 24.8953Z" fill="#4CAF50"/>
<path d="M6.48836 18.4183L5.1571 19.3306C6.70334 22.2111 9.74394 24.1699 13.2419 24.1699C13.5377 24.1699 13.8301 24.1554 14.1187 24.128C10.6465 23.7969 7.73863 21.5294 6.48836 18.4183Z" fill="#43A047"/>
<path d="M14.9996 29.5605C19.2201 29.5605 23.0217 27.7646 25.6807 24.8953L24.5976 24.1128C22.1009 27.22 18.3555 29.2813 14.1229 29.534C14.413 29.5513 14.7052 29.5605 14.9996 29.5605Z" fill="#43A047"/>
<path d="M5.82972 15C5.82972 16.2082 6.06351 17.3619 6.48831 18.4183L1.97366 21.5121C0.991626 19.5527 0.439087 17.3408 0.439087 15C0.439087 12.4482 1.09534 10.05 2.24846 7.96464L6.67054 11.1598C6.13089 12.3275 5.82972 13.6289 5.82972 15Z" fill="#FFC107"/>
<path d="M5.15704 19.3306L6.48829 18.4183C6.06348 17.3619 5.8297 16.2082 5.8297 15C5.8297 13.6289 6.13087 12.3275 6.67052 11.1597L5.39393 10.2374C4.56495 11.6061 4.08383 13.2123 4.07212 14.9364C4.06133 16.5263 4.45532 18.0234 5.15704 19.3306Z" fill="#FFB300"/>
<path d="M29.3262 11.8652H26.2816C26.0389 11.8652 25.8421 12.062 25.8421 12.3047C25.8421 12.5474 26.0389 12.7441 26.2816 12.7441H29.1211V15C29.1211 15.8793 29.0396 16.7589 28.879 17.6145C28.3998 20.1762 27.2471 22.4643 25.6253 24.3128L21.9356 21.6474C22.9685 20.5665 23.7494 19.2491 24.1869 17.8242C24.2278 17.6909 24.2031 17.5462 24.1202 17.4341C24.0373 17.3219 23.9062 17.2558 23.7668 17.2558H15.4394V12.7441H24.3795C24.6222 12.7441 24.819 12.5474 24.819 12.3047C24.819 12.062 24.6222 11.8652 24.3795 11.8652H15.2344C14.8628 11.8652 14.5605 12.1675 14.5605 12.539V17.4609C14.5605 17.8324 14.8628 18.1347 15.2344 18.1347H23.1511C21.8626 21.5056 18.6587 23.7304 15 23.7304C13.0851 23.7304 11.2676 23.1222 9.74395 21.9715C9.5503 21.8253 9.27467 21.8637 9.12842 22.0573C8.98211 22.2511 9.02061 22.5266 9.21426 22.6729C10.8917 23.9397 12.8924 24.6093 15 24.6093C17.0973 24.6093 19.0901 23.9456 20.763 22.6899C20.9435 22.5544 21.1186 22.4122 21.2887 22.2644L25.0204 24.9602C22.4432 27.55 18.8801 29.121 14.9996 29.121C14.9666 29.121 14.9334 29.1209 14.9004 29.1207C9.5636 29.0839 4.91899 26.0606 2.5501 21.65L6.29963 19.0805C6.68032 19.8921 7.17532 20.6526 7.77672 21.3375C7.86356 21.4364 7.98502 21.487 8.10713 21.487C8.21008 21.487 8.31344 21.451 8.39694 21.3778C8.57928 21.2176 8.59733 20.94 8.43719 20.7576C7.02496 19.1493 6.25528 17.083 6.26981 14.9394C6.30215 10.1588 10.2186 6.26952 15 6.26952C17.251 6.26952 19.3883 7.12399 21.0181 8.67543C21.2846 8.92914 21.6976 8.92387 21.9581 8.6633L25.4396 5.18179C25.5683 5.05317 25.6383 4.8822 25.6368 4.70032C25.6352 4.51769 25.562 4.34706 25.4304 4.21974C22.6175 1.49859 18.9132 0 15 0C12.7216 0 10.5333 0.497929 8.49573 1.47984C8.27711 1.58519 8.1853 1.84787 8.29065 2.06654C8.396 2.28509 8.6585 2.37691 8.87735 2.27162C10.7949 1.34748 12.8548 0.878905 15 0.878905C18.6149 0.878905 22.0406 2.23746 24.6698 4.70876L21.4769 7.90159C19.7024 6.28071 17.4104 5.39061 15 5.39061C12.4356 5.39061 10.0281 6.37903 8.22069 8.17381C7.52413 8.86557 6.94727 9.64756 6.49967 10.4939L2.82443 7.83836C3.91381 5.98745 5.42975 4.38128 7.29426 3.16476C7.49752 3.0321 7.55477 2.75982 7.42217 2.55662C7.28957 2.3533 7.01729 2.29611 6.81403 2.42871C2.55854 5.20522 0.0112293 9.89213 3.79295e-05 14.9662C-0.00880973 18.9722 1.53051 22.7371 4.33434 25.5675C7.1384 28.3979 10.8887 29.972 14.8943 29.9996C14.9289 29.9999 14.963 30 14.9976 30C18.5024 29.9999 21.908 28.7693 24.5967 26.5286C27.2774 24.2947 29.105 21.1864 29.7429 17.7764C29.9135 16.8677 30 15.9336 30 15V12.539C30 12.1675 29.6977 11.8652 29.3262 11.8652ZM2.39928 8.61555L6.1191 11.3032C5.64994 12.4377 5.39946 13.6655 5.39084 14.9335C5.38311 16.0748 5.57799 17.1961 5.95662 18.2502L2.15547 20.8551C1.3324 19.0599 0.874316 17.0656 0.878945 14.9682C0.883867 12.72 1.41789 10.5527 2.39928 8.61555Z" fill="black"/>
</svg>
