<svg width="254" height="91" viewBox="0 0 254 91" fill="none" xmlns="http://www.w3.org/2000/svg">
<path d="M27.7917 12.8711C27.7917 15.4492 27.1758 17.6764 25.944 19.5527C24.8984 21.1283 23.595 22.2454 22.0339 22.9043C23.0365 23.334 23.8529 24.043 24.4831 25.0312C25.1133 26.0195 25.4284 27.0723 25.4284 28.1895C25.4284 30.9681 23.946 33.002 20.9811 34.291C18.6895 35.2936 15.6816 35.7949 11.9577 35.7949C8.74935 35.7949 5.30468 35.5299 1.6237 35C1.52343 31.6628 1.31575 26.2201 1.00065 18.6719C0.785805 14.6185 0.463539 9.0612 0.0338516 2C2.75521 1.47005 6.19987 1.20508 10.3678 1.20508C21.9837 1.20508 27.7917 5.09375 27.7917 12.8711ZM19.0475 16.9102C19.0475 15.8073 18.6035 14.9622 17.7155 14.375C16.9134 13.8451 15.8607 13.5944 14.5573 13.623L14.235 20.0898C17.4434 20.2044 19.0475 19.1445 19.0475 16.9102ZM18.3385 27.1152C18.3385 25.4538 17.1497 24.623 14.7721 24.623C14.5286 24.623 14.278 24.6374 14.0202 24.666L13.8913 29.9297C16.8561 30.0586 18.3385 29.1204 18.3385 27.1152ZM43.7865 2L42.9486 19.5527C42.791 23.334 42.6048 28.4831 42.39 35H30.3372L28.8763 2H43.7865ZM67.7949 2L66.8711 15.5996C66.3411 15.5137 65.1953 15.3633 63.4336 15.1484C62.2305 15.0339 60.9128 14.9622 59.4805 14.9336L59.1582 19.0371C60.7337 19.0801 63.3047 19.0443 66.8711 18.9297C66.7135 19.4596 66.4629 20.4479 66.1191 21.8945C65.9186 22.7682 65.7396 23.778 65.582 24.9238C65.1667 24.8236 64.1283 24.6947 62.4668 24.5371C61.6934 24.4941 60.5475 24.4798 59.0293 24.4941L58.8144 29.2852C59.8887 29.2708 61.8652 29.1777 64.7441 29.0059C65.2884 28.9629 66.1836 28.791 67.4297 28.4902C67.3151 28.9342 67.0501 30.0013 66.6348 31.6914C66.4342 32.5651 66.1908 33.668 65.9043 35H46.6758L46.0527 18.1562C45.9381 14.3034 45.6589 8.91797 45.2148 2H67.7949ZM95.735 2C95.5345 4.89323 95.2552 9.94206 94.8971 17.1465C94.6823 22.446 94.5033 28.5404 94.36 35.4297C92.4837 33.9544 89.6263 31.7559 85.7878 28.834C84.1263 27.6738 81.6484 25.9336 78.3542 23.6133L78.1393 35H71.2214C71.1068 32.0924 70.8418 26.6068 70.4264 18.543C70.0684 12.0117 69.7031 6.4974 69.3307 2H80.1159L88.1081 9.5625C88.1081 7.82943 88.0794 6.46875 88.0221 5.48047C87.9792 4.60677 87.8932 3.44661 87.7643 2H95.735ZM124.857 2C123.668 5.52344 121.763 11.2741 119.142 19.252C117.939 23.0046 116.385 28.2539 114.48 35H107.003C106.044 31.7344 104.439 26.3991 102.191 18.9941C100.916 14.8978 99.0254 9.23307 96.5189 2H111.708C111.852 3.36068 112.188 5.57357 112.718 8.63867C113.076 10.2715 113.635 12.5202 114.394 15.3848C114.795 13.9954 115.382 11.7324 116.156 8.5957C116.514 6.9056 116.922 4.70703 117.38 2H124.857ZM148.221 2L147.297 15.5996C146.767 15.5137 145.621 15.3633 143.859 15.1484C142.656 15.0339 141.339 14.9622 139.906 14.9336L139.584 19.0371C141.16 19.0801 143.73 19.0443 147.297 18.9297C147.139 19.4596 146.889 20.4479 146.545 21.8945C146.344 22.7682 146.165 23.778 146.008 24.9238C145.592 24.8236 144.554 24.6947 142.893 24.5371C142.119 24.4941 140.973 24.4798 139.455 24.4941L139.24 29.2852C140.314 29.2708 142.291 29.1777 145.17 29.0059C145.714 28.9629 146.609 28.791 147.855 28.4902C147.741 28.9342 147.476 30.0013 147.061 31.6914C146.86 32.5651 146.617 33.668 146.33 35H127.102L126.479 18.1562C126.364 14.3034 126.085 8.91797 125.641 2H148.221ZM176.161 2C175.96 4.89323 175.681 9.94206 175.323 17.1465C175.108 22.446 174.929 28.5404 174.786 35.4297C172.909 33.9544 170.052 31.7559 166.214 28.834C164.552 27.6738 162.074 25.9336 158.78 23.6133L158.565 35H151.647C151.533 32.0924 151.268 26.6068 150.852 18.543C150.494 12.0117 150.129 6.4974 149.757 2H160.542L168.534 9.5625C168.534 7.82943 168.505 6.46875 168.448 5.48047C168.405 4.60677 168.319 3.44661 168.19 2H176.161ZM192.521 2L191.683 19.5527C191.525 23.334 191.339 28.4831 191.124 35H179.072L177.611 2H192.521ZM223.297 18.7578C223.297 23.9284 221.693 27.9961 218.484 30.9609C215.176 34.0404 210.514 35.5801 204.498 35.5801C200.631 35.5801 197.645 35.3867 195.539 35L194.959 19.0371C194.773 14.9408 194.436 9.29036 193.949 2.08594C197.057 1.64193 200.301 1.41992 203.682 1.41992C209.712 1.41992 214.431 2.82357 217.84 5.63086C221.478 8.63867 223.297 13.0143 223.297 18.7578ZM214.488 21.4004C214.488 19.2949 213.808 17.7409 212.447 16.7383C211.316 15.9076 209.869 15.528 208.107 15.5996L207.807 29.0703C209.64 28.9557 211.137 28.3613 212.297 27.2871C213.758 25.9551 214.488 23.9928 214.488 21.4004ZM253.407 17.791C253.407 22.847 252.104 27.1224 249.497 30.6172C246.761 34.2695 243.259 36.0957 238.991 36.0957C234.594 36.0957 231.034 34.2552 228.313 30.5742C225.749 27.1081 224.467 22.847 224.467 17.791C224.467 12.3913 225.864 8.15169 228.657 5.07227C231.292 2.17904 234.737 0.732422 238.991 0.732422C243.173 0.732422 246.582 2.1862 249.217 5.09375C252.01 8.1875 253.407 12.4199 253.407 17.791ZM243.073 21.5723C243.073 17.5905 241.727 15.5996 239.034 15.5996C236.413 15.5996 235.102 17.6048 235.102 21.6152C235.102 23.2194 235.446 24.7161 236.133 26.1055C236.907 27.6667 237.859 28.4473 238.991 28.4473C240.094 28.4473 241.068 27.6523 241.913 26.0625C242.686 24.6159 243.073 23.1191 243.073 21.5723ZM34.6341 89H22.8822L22.0872 86.1426C21.7578 86.2715 20.9342 86.7083 19.6165 87.4531C18.7715 87.9974 17.8333 88.7207 16.8021 89.623L15.5775 87.0234C15.334 86.5078 14.9831 85.7845 14.5247 84.8535L13.3646 89H7.13412C8.05078 85.4622 9.46875 79.6257 11.388 71.4902C12.5625 66.0475 13.5436 60.8841 14.3314 56H27.2435C27.6445 58.2487 28.7402 63.4837 30.5306 71.7051C31.5189 76.002 32.8867 81.7669 34.6341 89ZM21.0775 81.9531C20.834 81.194 20.4043 79.9622 19.7884 78.2578C19.416 77.3125 18.8503 76.0091 18.0911 74.3477C17.7617 75.1784 17.2461 76.5391 16.5443 78.4297C16.1576 79.5182 15.6992 81.0007 15.1693 82.877C15.599 82.877 16.5729 82.791 18.0911 82.6191C19.0078 82.4902 20.0033 82.2682 21.0775 81.9531ZM67.8483 69.5137C67.0605 69.2702 66.0508 69.1484 64.819 69.1484C62.5273 69.1484 60.6654 69.75 59.2331 70.9531C57.6146 72.2995 56.8053 74.2402 56.8053 76.7754C56.8053 78.752 57.4427 80.3776 58.7174 81.6523C60.0065 82.9128 61.6895 83.543 63.7663 83.543C65.1842 83.543 66.5306 83.1921 67.8053 82.4902C67.6621 83.0775 67.4186 84.1589 67.0749 85.7344C66.8744 86.7799 66.681 87.8685 66.4948 89C64.8906 89.6159 62.8353 89.9238 60.3288 89.9238C55.7884 89.9238 51.9069 88.3984 48.6842 85.3477C45.1895 82.0247 43.4421 77.6992 43.4421 72.3711C43.4421 67.444 44.946 63.4622 47.9538 60.4258C51.1621 57.1888 55.5951 55.5703 61.2526 55.5703C63.974 55.5703 65.9434 55.7279 67.1608 56.043L67.8483 69.5137ZM98.2161 71.791C98.2161 76.847 96.9128 81.1224 94.306 84.6172C91.5703 88.2695 88.0684 90.0957 83.8001 90.0957C79.403 90.0957 75.8438 88.2552 73.1224 84.5742C70.5586 81.1081 69.2767 76.847 69.2767 71.791C69.2767 66.3913 70.6732 62.1517 73.4661 59.0723C76.1016 56.179 79.5462 54.7324 83.8001 54.7324C87.9824 54.7324 91.3913 56.1862 94.0267 59.0938C96.8197 62.1875 98.2161 66.4199 98.2161 71.791ZM87.8822 75.5723C87.8822 71.5905 86.5358 69.5996 83.8431 69.5996C81.222 69.5996 79.9115 71.6048 79.9115 75.6152C79.9115 77.2194 80.2552 78.7161 80.9427 80.1055C81.7161 81.6667 82.6686 82.4473 83.8001 82.4473C84.903 82.4473 85.877 81.6523 86.722 80.0625C87.4954 78.6159 87.8822 77.1191 87.8822 75.5723ZM128.348 71.791C128.348 76.847 127.044 81.1224 124.438 84.6172C121.702 88.2695 118.2 90.0957 113.932 90.0957C109.535 90.0957 105.975 88.2552 103.254 84.5742C100.69 81.1081 99.4082 76.847 99.4082 71.791C99.4082 66.3913 100.805 62.1517 103.598 59.0723C106.233 56.179 109.678 54.7324 113.932 54.7324C118.114 54.7324 121.523 56.1862 124.158 59.0938C126.951 62.1875 128.348 66.4199 128.348 71.791ZM118.014 75.5723C118.014 71.5905 116.667 69.5996 113.975 69.5996C111.354 69.5996 110.043 71.6048 110.043 75.6152C110.043 77.2194 110.387 78.7161 111.074 80.1055C111.848 81.6667 112.8 82.4473 113.932 82.4473C115.035 82.4473 116.008 81.6523 116.854 80.0625C117.627 78.6159 118.014 77.1191 118.014 75.5723ZM160.907 57.7188C160.119 59.1797 158.508 62.2591 156.073 66.957C154.741 69.5495 152.908 73.0085 150.573 77.334C150.773 77.6491 151.934 78.974 154.053 81.3086C155.299 82.6406 157.068 84.3379 159.36 86.4004C158.4 86.8158 156.832 87.4889 154.655 88.4199C153.438 88.9642 151.726 89.7591 149.52 90.8047C148.976 90.1458 147.859 88.6061 146.169 86.1855C145.223 84.7533 144.314 83.2279 143.44 81.6094H143.354L143.139 89H131.258L130.678 71.834C130.521 68.0814 130.184 62.8034 129.669 56H144.622L143.784 70.4805H143.934C144.536 68.7904 145.503 66.0046 146.835 62.123C147.379 60.4329 148.081 58.1126 148.94 55.1621L155.02 56.4941C156.997 56.9238 158.959 57.332 160.907 57.7188ZM187.751 89H175.999L175.204 86.1426C174.875 86.2715 174.051 86.7083 172.734 87.4531C171.889 87.9974 170.951 88.7207 169.919 89.623L168.695 87.0234C168.451 86.5078 168.1 85.7845 167.642 84.8535L166.482 89H160.251C161.168 85.4622 162.586 79.6257 164.505 71.4902C165.68 66.0475 166.661 60.8841 167.449 56H180.361C180.762 58.2487 181.857 63.4837 183.648 71.7051C184.636 76.002 186.004 81.7669 187.751 89ZM174.195 81.9531C173.951 81.194 173.521 79.9622 172.906 78.2578C172.533 77.3125 171.967 76.0091 171.208 74.3477C170.879 75.1784 170.363 76.5391 169.661 78.4297C169.275 79.5182 168.816 81.0007 168.286 82.877C168.716 82.877 169.69 82.791 171.208 82.6191C172.125 82.4902 173.12 82.2682 174.195 81.9531ZM216.057 69.0195C216.057 73.0872 214.753 76.3457 212.146 78.7949C209.554 81.2298 206.109 82.4473 201.812 82.4473L201.555 89H189.717L189.094 72.9941C188.908 68.8691 188.614 63.2044 188.213 56C190.447 55.556 193.72 55.334 198.031 55.334C203.288 55.334 207.499 56.3867 210.664 58.4922C214.259 60.8841 216.057 64.3932 216.057 69.0195ZM207.141 72.6289C207.141 70.3945 205.816 69.2773 203.166 69.2773C202.851 69.2773 202.529 69.2988 202.199 69.3418L201.984 76.8613C205.422 76.7467 207.141 75.3359 207.141 72.6289ZM244.985 69.0195C244.985 73.0872 243.682 76.3457 241.075 78.7949C238.482 81.2298 235.038 82.4473 230.741 82.4473L230.483 89H218.645L218.022 72.9941C217.836 68.8691 217.542 63.2044 217.141 56C219.376 55.556 222.648 55.334 226.96 55.334C232.216 55.334 236.427 56.3867 239.592 58.4922C243.187 60.8841 244.985 64.3932 244.985 69.0195ZM236.069 72.6289C236.069 70.3945 234.744 69.2773 232.094 69.2773C231.779 69.2773 231.457 69.2988 231.128 69.3418L230.913 76.8613C234.35 76.7467 236.069 75.3359 236.069 72.6289Z" fill="black"/>
</svg>
