<svg width="40" height="40" viewBox="0 0 40 40" fill="none" xmlns="http://www.w3.org/2000/svg">
<path d="M39.5684 12.965C38.7341 10.8405 37.2041 7.77514 34.6532 5.2364C32.1114 2.70641 29.0786 1.22016 26.9818 0.418761C24.68 -0.461001 22.0643 0.0935278 20.3182 1.83141L14.1824 7.93842C12.3636 9.74864 11.8394 12.5341 12.8779 14.8696C13.1999 15.594 13.5502 16.3025 13.9244 16.987L0.457654 30.4537C0.164609 30.7468 0 31.1442 0 31.5586V38.4336C0 39.2966 0.699529 39.9961 1.56249 39.9961H8.43747C9.30043 39.9961 9.99996 39.2966 9.99996 38.4336V35.6211L12.8124 35.621C13.6754 35.621 14.3749 34.9215 14.3749 34.0585V31.2461H17.1874C18.0504 31.2461 18.7499 30.5466 18.7499 29.6836C18.7499 28.8207 18.0504 28.1211 17.1874 28.1211H12.8124C11.9495 28.1211 11.25 28.8207 11.25 29.6836V32.496L8.43747 32.4961C7.5745 32.4961 6.87497 33.1957 6.87497 34.0586V36.8711H3.12499V32.2058L16.9808 18.3501C17.4899 17.841 17.5852 17.0502 17.2119 16.4347C16.6704 15.5422 16.173 14.5885 15.7335 13.6C15.218 12.4405 15.4806 11.0554 16.3871 10.1532L22.5228 4.04625C23.3988 3.17445 24.7112 2.89641 25.8664 3.33781C27.6806 4.03125 30.2953 5.30765 32.4489 7.45123C34.6156 9.60778 35.9348 12.2611 36.6598 14.1072C37.1122 15.2594 36.8373 16.5684 35.9594 17.4421L29.7496 23.6229C28.8453 24.5228 27.4956 24.7859 26.3108 24.2932C25.3337 23.8868 24.3874 23.404 23.4983 22.8583C22.763 22.4069 21.8008 22.6372 21.3494 23.3726C20.898 24.1081 21.1282 25.0703 21.8637 25.5217C22.8912 26.1523 23.9837 26.7097 25.1107 27.1785C27.4655 28.1581 30.1517 27.6316 31.954 25.8378L38.1638 19.6571C39.9252 17.9041 40.4765 15.2773 39.5684 12.965Z" fill="white"/>
</svg>
