<svg width="20" height="20" viewBox="0 0 20 20" fill="none" xmlns="http://www.w3.org/2000/svg">
<g clip-path="url(#clip0)">
<path d="M16.6795 0H3.32031C2.07108 0 1.05469 1.01639 1.05469 2.26562V16.7186C1.05469 17.3648 1.58035 17.8905 2.22656 17.8905H7.35672C7.57248 17.8905 7.74734 17.7156 7.74734 17.4998C7.74734 17.2841 7.57248 17.1092 7.35672 17.1092H2.22656C2.01111 17.1092 1.83594 16.9341 1.83594 16.7186V2.26562C1.83594 1.44714 2.50183 0.78125 3.32031 0.78125H14.9701C14.6242 1.1792 14.4139 1.69815 14.4139 2.26562V14.8541C14.4139 15.2145 14.1208 15.5077 13.7604 15.5077C13.4787 15.5077 13.2295 15.3281 13.1403 15.0609L12.5516 13.2945C12.3854 12.7959 11.9205 12.4609 11.395 12.4609C10.7227 12.4609 10.1758 13.0078 10.1758 13.68V13.9842H8.15109C7.93533 13.9842 7.76047 14.1592 7.76047 14.3748C7.76047 14.5906 7.93533 14.7655 8.15109 14.7655H10.1758V16.7088C10.1758 17.2856 10.2882 17.8481 10.5101 18.3803L11.0847 19.7595C11.1473 19.9095 11.2924 20 11.4455 20C11.4955 20 11.5465 19.9904 11.5955 19.9699C11.7947 19.8869 11.8889 19.6582 11.8059 19.4591L11.2312 18.0798C11.0493 17.6433 10.957 17.182 10.957 16.709V13.6801C10.957 13.4386 11.1534 13.2422 11.395 13.2422C11.5837 13.2422 11.7508 13.3624 11.8105 13.5416L12.3991 15.3079C12.5948 15.8946 13.1418 16.2889 13.7604 16.2889C14.5515 16.2889 15.1952 15.6453 15.1952 14.8541V8.15689L15.7172 8.67783C16.6486 9.60739 17.1614 10.8441 17.1614 12.1599V16.3123C17.1614 17.3878 16.9177 18.47 16.4569 19.4418C16.3644 19.6367 16.4476 19.8697 16.6425 19.9622C16.8373 20.0546 17.0703 19.9716 17.1628 19.7766C17.6729 18.7009 17.9427 17.5029 17.9427 16.3123V12.1599C17.9427 10.6351 17.3483 9.20212 16.2691 8.12485L15.1952 7.05292V6.67969H17.7733C18.4195 6.67969 18.9452 6.15402 18.9452 5.50781V2.26562C18.9452 1.01639 17.9289 0 16.6795 0V0ZM18.1639 5.50781C18.1639 5.72311 17.9887 5.89844 17.7733 5.89844H15.1952V2.26562C15.1952 1.44714 15.8611 0.78125 16.6795 0.78125C17.498 0.78125 18.1639 1.44714 18.1639 2.26562V5.50781Z" fill="black"/>
<path d="M9.0625 17.1092C8.95966 17.1092 8.85895 17.151 8.78632 17.2237C8.71368 17.2964 8.67188 17.3972 8.67188 17.4998C8.67188 17.6027 8.71368 17.7034 8.78632 17.776C8.85895 17.8487 8.95966 17.8905 9.0625 17.8905C9.16519 17.8905 9.2659 17.8487 9.33868 17.776C9.41132 17.7034 9.45312 17.6027 9.45312 17.4998C9.45312 17.3972 9.41132 17.2964 9.33868 17.2237C9.2659 17.151 9.16519 17.1092 9.0625 17.1092Z" fill="black"/>
<path d="M6.43237 2.89062C6.43237 2.45987 6.08188 2.10938 5.65112 2.10938H3.93237C3.50146 2.10938 3.15112 2.45987 3.15112 2.89062V4.60938C3.15112 5.04013 3.50146 5.39062 3.93237 5.39062H5.65112C6.08188 5.39062 6.43237 5.04013 6.43237 4.60938V2.89062ZM5.65112 4.60938H3.93237V2.89062H5.65112L5.65158 4.60938C5.65158 4.60938 5.65143 4.60938 5.65112 4.60938Z" fill="black"/>
<path d="M6.43237 7.57812C6.43237 7.14737 6.08188 6.79688 5.65112 6.79688H3.93237C3.50146 6.79688 3.15112 7.14737 3.15112 7.57812V9.29688C3.15112 9.72763 3.50146 10.0781 3.93237 10.0781H5.65112C6.08188 10.0781 6.43237 9.72763 6.43237 9.29688V7.57812ZM5.65112 9.29688H3.93237V7.57812H5.65112L5.65158 9.29688C5.65158 9.29688 5.65143 9.29688 5.65112 9.29688Z" fill="black"/>
<path d="M5.65112 11.4844H3.93237C3.50146 11.4844 3.15112 11.8347 3.15112 12.2656V13.9842C3.15112 14.4151 3.50146 14.7655 3.93237 14.7655H5.65112C6.08188 14.7655 6.43237 14.4151 6.43237 13.9842V12.2656C6.43237 11.8347 6.08188 11.4844 5.65112 11.4844ZM5.65112 13.9842H3.93237V12.2656H5.65112L5.65158 13.9842C5.65158 13.9842 5.65143 13.9842 5.65112 13.9842Z" fill="black"/>
<path d="M12.6301 5.39062C12.8459 5.39062 13.0208 5.21576 13.0208 5C13.0208 4.78424 12.8459 4.60938 12.6301 4.60938H9.93726C9.7215 4.60938 9.54663 4.78424 9.54663 5C9.54663 5.21576 9.7215 5.39062 9.93726 5.39062H12.6301Z" fill="black"/>
<path d="M8.15112 5.39062C8.25397 5.39062 8.35468 5.34882 8.42731 5.27618C8.49994 5.20355 8.54175 5.10269 8.54175 5C8.54175 4.89731 8.49994 4.79645 8.42731 4.72382C8.35468 4.65118 8.25397 4.60938 8.15112 4.60938C8.04797 4.60938 7.94757 4.65118 7.87494 4.72382C7.802 4.79645 7.7605 4.89731 7.7605 5C7.7605 5.10269 7.802 5.20355 7.87494 5.27618C7.94757 5.34882 8.04797 5.39062 8.15112 5.39062Z" fill="black"/>
<path d="M8.15088 10.0781H12.6301C12.8459 10.0781 13.0207 9.90326 13.0207 9.6875C13.0207 9.47174 12.8459 9.29688 12.6301 9.29688H8.15088C7.93527 9.29688 7.76025 9.47174 7.76025 9.6875C7.76025 9.90326 7.93527 10.0781 8.15088 10.0781Z" fill="black"/>
</g>
<defs>
<clipPath id="clip0">
<rect width="20" height="20" fill="white"/>
</clipPath>
</defs>
</svg>
