<svg width="108" height="36" viewBox="0 0 108 36" fill="none" xmlns="http://www.w3.org/2000/svg">
<path d="M28.7009 25.3458C27.2729 25.3458 26.0309 25.0878 24.9749 24.5718C23.9189 24.0438 23.1089 23.2998 22.5449 22.3398C21.9809 21.3798 21.6989 20.2638 21.6989 18.9918C21.6989 17.2278 22.0289 15.6618 22.6889 14.2938C23.3609 12.9258 24.2669 11.8698 25.4069 11.1258C26.5469 10.3698 27.8129 9.99183 29.2049 9.99183C30.5009 9.99183 31.4849 10.3278 32.1569 10.9998C32.8289 11.6598 33.1649 12.5358 33.1649 13.6278C33.1649 14.3598 33.0329 14.9478 32.7689 15.3918C32.5169 15.8358 32.1509 16.0578 31.6709 16.0578C31.3349 16.0578 31.0709 15.9798 30.8789 15.8238C30.6869 15.6678 30.5909 15.4398 30.5909 15.1398C30.5909 15.0318 30.6149 14.8338 30.6629 14.5458C30.7349 14.1858 30.7709 13.8978 30.7709 13.6818C30.7709 12.5898 30.1889 12.0438 29.0249 12.0438C28.2329 12.0438 27.4769 12.3018 26.7569 12.8178C26.0369 13.3338 25.4549 14.0958 25.0109 15.1038C24.5669 16.0998 24.3449 17.2878 24.3449 18.6678C24.3449 20.1078 24.7469 21.2238 25.5509 22.0158C26.3549 22.7958 27.5429 23.1858 29.1149 23.1858C29.8949 23.1858 30.6809 23.0898 31.4729 22.8978C32.2769 22.6938 33.1649 22.3878 34.1369 21.9798C34.3169 21.9078 34.4669 21.8718 34.5869 21.8718C34.7789 21.8718 34.9229 21.9438 35.0189 22.0878C35.1149 22.2318 35.1629 22.4178 35.1629 22.6458C35.1629 23.3778 34.7669 23.9178 33.9749 24.2658C33.1229 24.6378 32.2349 24.9138 31.3109 25.0938C30.3989 25.2618 29.5289 25.3458 28.7009 25.3458ZM42.4216 19.7298C42.5776 19.7298 42.6976 19.8078 42.7816 19.9638C42.8656 20.1198 42.9076 20.3178 42.9076 20.5578C42.9076 21.1338 42.7336 21.4758 42.3856 21.5838C41.6656 21.8358 40.8736 21.9798 40.0096 22.0158C39.7816 23.0238 39.3316 23.8338 38.6596 24.4458C37.9876 25.0458 37.2256 25.3458 36.3736 25.3458C35.6536 25.3458 35.0356 25.1718 34.5196 24.8238C34.0156 24.4758 33.6316 24.0138 33.3676 23.4378C33.1036 22.8618 32.9716 22.2378 32.9716 21.5658C32.9716 20.6538 33.1456 19.8438 33.4936 19.1358C33.8416 18.4158 34.3216 17.8578 34.9336 17.4618C35.5456 17.0538 36.2236 16.8498 36.9676 16.8498C37.8796 16.8498 38.6116 17.1678 39.1636 17.8038C39.7276 18.4278 40.0576 19.2018 40.1536 20.1258C40.7176 20.0898 41.3896 19.9698 42.1696 19.7658C42.2656 19.7418 42.3496 19.7298 42.4216 19.7298ZM36.5176 23.4378C36.9016 23.4378 37.2316 23.2818 37.5076 22.9698C37.7956 22.6578 37.9876 22.2078 38.0836 21.6198C37.7116 21.3678 37.4236 21.0378 37.2196 20.6298C37.0276 20.2218 36.9316 19.7898 36.9316 19.3338C36.9316 19.1418 36.9496 18.9498 36.9856 18.7578H36.8956C36.4156 18.7578 36.0136 18.9918 35.6896 19.4598C35.3776 19.9158 35.2216 20.5638 35.2216 21.4038C35.2216 22.0638 35.3476 22.5678 35.5996 22.9158C35.8636 23.2638 36.1696 23.4378 36.5176 23.4378ZM50.2094 19.7298C50.3654 19.7298 50.4854 19.8078 50.5694 19.9638C50.6534 20.1198 50.6954 20.3178 50.6954 20.5578C50.6954 21.1338 50.5214 21.4758 50.1734 21.5838C49.4534 21.8358 48.6614 21.9798 47.7974 22.0158C47.5694 23.0238 47.1194 23.8338 46.4474 24.4458C45.7754 25.0458 45.0134 25.3458 44.1614 25.3458C43.4414 25.3458 42.8234 25.1718 42.3074 24.8238C41.8034 24.4758 41.4194 24.0138 41.1554 23.4378C40.8914 22.8618 40.7594 22.2378 40.7594 21.5658C40.7594 20.6538 40.9334 19.8438 41.2814 19.1358C41.6294 18.4158 42.1094 17.8578 42.7214 17.4618C43.3334 17.0538 44.0114 16.8498 44.7554 16.8498C45.6674 16.8498 46.3994 17.1678 46.9514 17.8038C47.5154 18.4278 47.8454 19.2018 47.9414 20.1258C48.5054 20.0898 49.1774 19.9698 49.9574 19.7658C50.0534 19.7418 50.1374 19.7298 50.2094 19.7298ZM44.3054 23.4378C44.6894 23.4378 45.0194 23.2818 45.2954 22.9698C45.5834 22.6578 45.7754 22.2078 45.8714 21.6198C45.4994 21.3678 45.2114 21.0378 45.0074 20.6298C44.8154 20.2218 44.7194 19.7898 44.7194 19.3338C44.7194 19.1418 44.7374 18.9498 44.7734 18.7578H44.6834C44.2034 18.7578 43.8014 18.9918 43.4774 19.4598C43.1654 19.9158 43.0094 20.5638 43.0094 21.4038C43.0094 22.0638 43.1354 22.5678 43.3874 22.9158C43.6514 23.2638 43.9574 23.4378 44.3054 23.4378ZM59.2211 21.2418C59.3771 21.2418 59.4971 21.3138 59.5811 21.4578C59.6771 21.6018 59.7251 21.7998 59.7251 22.0518C59.7251 22.5318 59.6111 22.9038 59.3831 23.1678C58.8431 23.8278 58.2971 24.3558 57.7451 24.7518C57.1931 25.1478 56.5391 25.3458 55.7831 25.3458C54.8591 25.3458 54.1151 25.0818 53.5511 24.5538C52.9871 24.0258 52.7051 23.3238 52.7051 22.4478C52.7051 21.9798 52.9451 21.6438 53.4251 21.4398C53.9531 21.2118 54.3311 20.9718 54.5591 20.7198C54.7871 20.4558 54.9011 20.1378 54.9011 19.7658C54.9011 19.5498 54.8531 19.3878 54.7571 19.2798C54.6731 19.1718 54.5651 19.1178 54.4331 19.1178C54.1091 19.1178 53.7491 19.3518 53.3531 19.8198C52.9691 20.2878 52.6091 20.8938 52.2731 21.6378C51.9371 22.3698 51.6731 23.1258 51.4811 23.9058C51.3491 24.4698 51.1931 24.8538 51.0131 25.0578C50.8451 25.2498 50.5751 25.3458 50.2031 25.3458C49.8311 25.3458 49.5551 25.2138 49.3751 24.9498C49.2071 24.6738 49.0931 24.2538 49.0331 23.6898C48.9731 23.1258 48.9431 22.2978 48.9431 21.2058C48.9431 19.3578 49.1291 17.4318 49.5011 15.4278C49.8851 13.4238 50.4431 11.7438 51.1751 10.3878C51.9191 9.01983 52.8071 8.33583 53.8391 8.33583C54.3911 8.33583 54.8351 8.57583 55.1711 9.05583C55.5191 9.52383 55.6931 10.1358 55.6931 10.8918C55.6931 12.1038 55.3391 13.3638 54.6311 14.6718C53.9231 15.9678 52.7711 17.4858 51.1751 19.2258C51.1391 19.8498 51.1211 20.4918 51.1211 21.1518C51.6971 19.6518 52.3571 18.5658 53.1011 17.8938C53.8451 17.2098 54.5411 16.8678 55.1891 16.8678C55.7891 16.8678 56.2691 17.0718 56.6291 17.4798C57.0011 17.8878 57.1871 18.3918 57.1871 18.9918C57.1871 19.6518 57.0191 20.2578 56.6831 20.8098C56.3471 21.3618 55.7711 21.8538 54.9551 22.2858C55.0031 22.6098 55.1471 22.8738 55.3871 23.0778C55.6391 23.2698 55.9391 23.3658 56.2871 23.3658C56.6591 23.3658 57.0191 23.2218 57.3671 22.9338C57.7151 22.6458 58.1711 22.1658 58.7351 21.4938C58.8791 21.3258 59.0411 21.2418 59.2211 21.2418ZM53.4611 10.1178C53.2451 10.1178 53.0051 10.4298 52.7411 11.0538C52.4771 11.6658 52.2191 12.4998 51.9671 13.5558C51.7271 14.5998 51.5291 15.7398 51.3731 16.9758C52.1171 16.0998 52.7291 15.1458 53.2091 14.1138C53.7011 13.0818 53.9471 12.1458 53.9471 11.3058C53.9471 10.9218 53.9051 10.6278 53.8211 10.4238C53.7371 10.2198 53.6171 10.1178 53.4611 10.1178ZM62.4768 25.3458C61.6488 25.3458 60.8988 25.1418 60.2268 24.7338C59.5668 24.3258 59.0448 23.7378 58.6608 22.9698C58.2768 22.1898 58.0848 21.2718 58.0848 20.2158C58.0848 18.3918 58.4748 16.7058 59.2548 15.1578C60.0348 13.5978 61.1868 12.3498 62.7108 11.4138C64.2348 10.4658 66.0648 9.99183 68.2008 9.99183C68.7528 9.99183 69.3408 10.0338 69.9648 10.1178C70.6008 10.2018 71.1768 10.3278 71.6928 10.4958C72.0288 10.5918 72.1968 10.8318 72.1968 11.2158C72.1968 11.5278 72.0768 11.8218 71.8368 12.0978C71.6088 12.3738 71.3388 12.5118 71.0268 12.5118C70.9308 12.5118 70.8588 12.5058 70.8108 12.4938C70.1868 12.3498 69.6528 12.2478 69.2088 12.1878C68.7648 12.1158 68.2968 12.0798 67.8048 12.0798C66.2808 12.0798 64.9848 12.4518 63.9168 13.1958C62.8488 13.9278 62.0508 14.8998 61.5228 16.1118C60.9948 17.3238 60.7308 18.6318 60.7308 20.0358C60.7308 21.0558 60.9288 21.8478 61.3248 22.4118C61.7328 22.9638 62.2608 23.2398 62.9088 23.2398C63.6408 23.2398 64.2828 22.9398 64.8348 22.3398C65.3868 21.7398 65.8908 20.7678 66.3468 19.4238C66.8028 18.0798 67.2528 16.2558 67.6968 13.9518C67.7688 13.6158 67.9128 13.3878 68.1288 13.2678C68.3448 13.1478 68.6328 13.0878 68.9928 13.0878C69.8448 13.0878 70.2708 13.3638 70.2708 13.9158C70.2708 14.0118 70.2528 14.1318 70.2168 14.2758C69.9048 15.4398 69.6168 16.7298 69.3528 18.1458C69.1008 19.5498 68.9748 20.6178 68.9748 21.3498C68.9748 21.9978 69.0708 22.4718 69.2628 22.7718C69.4548 23.0598 69.7488 23.2038 70.1448 23.2038C70.5288 23.2038 70.8948 23.0778 71.2428 22.8258C71.5908 22.5618 72.0288 22.1178 72.5568 21.4938C72.7008 21.3258 72.8628 21.2418 73.0428 21.2418C73.1988 21.2418 73.3188 21.3138 73.4028 21.4578C73.4988 21.6018 73.5468 21.7998 73.5468 22.0518C73.5468 22.5198 73.4328 22.8918 73.2048 23.1678C72.6168 23.8758 72.0408 24.4158 71.4768 24.7878C70.9128 25.1598 70.2228 25.3458 69.4068 25.3458C68.5668 25.3458 67.8888 25.1058 67.3728 24.6258C66.8568 24.1338 66.5328 23.4438 66.4008 22.5558C65.5128 24.4158 64.2048 25.3458 62.4768 25.3458ZM81.3699 21.2418C81.5259 21.2418 81.6459 21.3138 81.7299 21.4578C81.8259 21.6018 81.8739 21.7998 81.8739 22.0518C81.8739 22.5318 81.7599 22.9038 81.5319 23.1678C81.0159 23.8038 80.4579 24.3258 79.8579 24.7338C79.2699 25.1418 78.5979 25.3458 77.8419 25.3458C77.2059 25.3458 76.6899 25.1178 76.2939 24.6618C75.6099 25.1058 74.8959 25.3338 74.1519 25.3458C73.9959 27.6618 73.6419 29.5938 73.0899 31.1418C72.5379 32.7018 71.7279 33.4818 70.6599 33.4818C70.0119 33.4818 69.5319 33.2478 69.2199 32.7798C68.9079 32.3118 68.7519 31.6638 68.7519 30.8358C68.7519 29.6598 69.0219 28.2858 69.5619 26.7138C70.1019 25.1538 70.9359 23.4318 72.0639 21.5478C72.0639 19.7958 72.0519 18.5778 72.0279 17.8938C72.0159 17.5458 72.1539 17.2698 72.4419 17.0658C72.7299 16.8618 73.0899 16.7598 73.5219 16.7598C73.7739 16.7598 73.9539 16.8138 74.0619 16.9218C74.1819 17.0178 74.2479 17.2158 74.2599 17.5158C74.2599 17.8158 74.2659 18.0378 74.2779 18.1818C74.6619 17.7018 75.0399 17.3598 75.4119 17.1558C75.7839 16.9398 76.1799 16.8318 76.5999 16.8318C77.2719 16.8318 77.8179 17.1018 78.2379 17.6418C78.6699 18.1818 78.8859 18.8898 78.8859 19.7658C78.8859 20.4018 78.7839 21.0198 78.5799 21.6198C78.3759 22.2198 78.0939 22.7658 77.7339 23.2578C77.9859 23.3298 78.1959 23.3658 78.3639 23.3658C78.7599 23.3658 79.1379 23.2218 79.4979 22.9338C79.8579 22.6458 80.3199 22.1658 80.8839 21.4938C81.0279 21.3258 81.1899 21.2418 81.3699 21.2418ZM74.2419 23.6178C74.6739 23.5218 75.0699 23.2878 75.4299 22.9158C75.8019 22.5318 76.0959 22.0638 76.3119 21.5118C76.5279 20.9478 76.6359 20.3598 76.6359 19.7478C76.6359 19.3878 76.5639 19.1178 76.4199 18.9378C76.2759 18.7458 76.0839 18.6498 75.8439 18.6498C75.4119 18.6498 74.8899 19.1058 74.2779 20.0178C74.2659 20.5458 74.2599 21.3198 74.2599 22.3398C74.2599 22.8918 74.2539 23.3178 74.2419 23.6178ZM70.8039 31.7178C71.1279 31.7178 71.3979 31.0098 71.6139 29.5938C71.8299 28.1898 71.9679 26.4378 72.0279 24.3378C71.5119 25.5378 71.1039 26.6838 70.8039 27.7758C70.5039 28.8678 70.3539 29.7858 70.3539 30.5298C70.3539 30.9138 70.4019 31.2078 70.4979 31.4118C70.5819 31.6158 70.6839 31.7178 70.8039 31.7178ZM87.2186 19.7658C87.2186 20.7138 86.9966 21.6138 86.5526 22.4658C86.1206 23.3058 85.5386 23.9898 84.8066 24.5178C84.0866 25.0458 83.3126 25.3218 82.4846 25.3458C82.3286 27.6618 81.9746 29.5938 81.4226 31.1418C80.8706 32.7018 80.0606 33.4818 78.9926 33.4818C78.3446 33.4818 77.8646 33.2478 77.5526 32.7798C77.2406 32.3118 77.0846 31.6638 77.0846 30.8358C77.0846 29.6598 77.3546 28.2858 77.8946 26.7138C78.4346 25.1538 79.2686 23.4318 80.3966 21.5478C80.3966 19.7958 80.3846 18.5778 80.3606 17.8938C80.3486 17.5458 80.4866 17.2698 80.7746 17.0658C81.0626 16.8618 81.4226 16.7598 81.8546 16.7598C82.1066 16.7598 82.2866 16.8138 82.3946 16.9218C82.5146 17.0178 82.5806 17.2158 82.5926 17.5158C82.5926 17.8158 82.5986 18.0378 82.6106 18.1818C82.9946 17.7018 83.3726 17.3598 83.7446 17.1558C84.1166 16.9398 84.5126 16.8318 84.9326 16.8318C85.6046 16.8318 86.1506 17.1018 86.5706 17.6418C87.0026 18.1818 87.2186 18.8898 87.2186 19.7658ZM82.5746 23.6178C83.0066 23.5218 83.4026 23.2878 83.7626 22.9158C84.1346 22.5318 84.4286 22.0638 84.6446 21.5118C84.8606 20.9478 84.9686 20.3598 84.9686 19.7478C84.9686 19.3878 84.8966 19.1178 84.7526 18.9378C84.6086 18.7458 84.4166 18.6498 84.1766 18.6498C83.7446 18.6498 83.2226 19.1058 82.6106 20.0178C82.5986 20.5458 82.5926 21.3198 82.5926 22.3398C82.5926 22.8918 82.5866 23.3178 82.5746 23.6178ZM79.1366 31.7178C79.4606 31.7178 79.7306 31.0098 79.9466 29.5938C80.1626 28.1898 80.3006 26.4378 80.3606 24.3378C79.8446 25.5378 79.4366 26.6838 79.1366 27.7758C78.8366 28.8678 78.6866 29.7858 78.6866 30.5298C78.6866 30.9138 78.7346 31.2078 78.8306 31.4118C78.9146 31.6158 79.0166 31.7178 79.1366 31.7178Z" fill="black"/>
<g clip-path="url(#clip0)">
<path d="M36.8824 2.67191C36.7669 2.60242 36.616 2.61159 36.5454 2.69235L34.7563 4.73962L34.2033 4.4071L35.9924 2.35983C36.0629 2.27907 36.0265 2.15729 35.9109 2.0878C35.7953 2.01831 35.6445 2.02748 35.5739 2.10823L33.7848 4.15551L33.2441 3.8304L35.0332 1.78313C35.1037 1.70237 35.0673 1.58059 34.9517 1.5111C34.8362 1.44161 34.6853 1.45078 34.6147 1.53153L32.8256 3.57881L32.2715 3.24563L34.0606 1.19836C34.1311 1.1176 34.0947 0.995823 33.9791 0.926333C33.8635 0.856843 33.7127 0.866009 33.6421 0.946767L31.0112 3.9573C30.7394 4.26832 30.7264 4.70184 30.9771 5.08866L31.2024 5.43623L30.4187 6.33307C30.1792 6.36323 29.9721 6.46294 29.8399 6.61416L29.7091 6.76388C29.6298 6.8546 29.6018 6.96514 29.6193 7.07631C29.4864 7.09712 29.3685 7.15361 29.2892 7.24433L27.2902 9.53187C27.2196 9.61263 27.2561 9.7344 27.3716 9.80389C27.4872 9.87338 27.6381 9.86422 27.7086 9.78346L29.7077 7.4959C29.753 7.44408 29.8502 7.43819 29.9244 7.48277L30.6318 7.90809C30.7059 7.95267 30.7294 8.03111 30.6841 8.08293L27.7532 11.4368C27.5888 11.6249 27.236 11.6463 26.9668 11.4845C26.6976 11.3227 26.6124 11.0379 26.7768 10.8498L27.1136 10.4643C27.1842 10.3835 27.1478 10.2618 27.0322 10.1923C26.9166 10.1228 26.7658 10.1319 26.6952 10.2127L26.3583 10.5982C26.053 10.9476 26.2113 11.4764 26.7112 11.777C27.2112 12.0775 27.8663 12.0378 28.1716 11.6884L31.1026 8.33453C31.1818 8.24381 31.2098 8.13326 31.1924 8.02209C31.3252 8.00128 31.4431 7.9448 31.5224 7.85407L31.6533 7.70435C31.785 7.55356 31.8349 7.35982 31.7956 7.1622L32.5801 6.26445L33.0478 6.33366C33.5688 6.41072 34.0611 6.2655 34.3328 5.95467L36.9639 2.94394C37.0345 2.86318 36.998 2.74139 36.8824 2.67191V2.67191ZM33.9143 5.7031C33.734 5.9095 33.407 6.00593 33.0611 5.95474L32.4515 5.86456C32.3637 5.85158 32.2814 5.87585 32.2356 5.92822L31.3265 6.96857C31.2914 7.00868 31.2815 7.06119 31.299 7.1138C31.3402 7.23789 31.3174 7.35826 31.2348 7.45276L31.104 7.60248C31.0587 7.65431 30.9615 7.66022 30.8874 7.61563L30.1799 7.19031C30.1058 7.14573 30.0823 7.06727 30.1276 7.01545L30.2584 6.86573C30.3412 6.77097 30.4725 6.71555 30.628 6.70966C30.694 6.70718 30.7512 6.68299 30.7864 6.64278L31.6949 5.60313C31.7407 5.55074 31.7429 5.47825 31.7006 5.4131L31.4071 4.96017C31.2405 4.70331 31.2492 4.41543 31.4297 4.20891L32.0159 3.53811L34.5007 5.03206L33.9143 5.70308L33.9143 5.7031Z" fill="black"/>
<path d="M38.7426 7.52957C38.4826 7.82709 38.1867 8.00257 37.9096 8.02368C37.6452 8.04381 37.3764 7.91985 37.1975 7.8123C37.0186 7.70475 36.793 7.53148 36.7338 7.31675C36.6718 7.09172 36.7808 6.80392 37.0408 6.50637C37.1114 6.42562 37.0749 6.30384 36.9594 6.23435C36.8438 6.16486 36.6929 6.17402 36.6223 6.25478C36.2911 6.63379 36.1641 7.0085 36.2551 7.3384C36.3516 7.68849 36.6819 7.94838 36.942 8.10474C37.202 8.26109 37.6026 8.44058 38.0337 8.40778C38.44 8.37683 38.8299 8.16015 39.1611 7.78116C39.2316 7.7004 39.1952 7.57862 39.0796 7.50913C38.964 7.43964 38.8132 7.44881 38.7426 7.52957Z" fill="black"/>
<path d="M40.0342 4.56637C39.4655 4.22447 38.6653 4.19448 37.7809 4.48187C37.0061 4.73369 36.2601 5.20836 35.7854 5.75159C35.0582 6.58376 35.0681 7.46989 35.8029 8.20672L35.022 9.1003C34.7826 9.13047 34.5755 9.23018 34.4433 9.38138L34.3125 9.5311C34.2332 9.6218 34.2052 9.73233 34.2227 9.84352C34.0898 9.86433 33.9719 9.9208 33.8926 10.0115L30.9617 13.3654C30.6564 13.7148 30.8147 14.2436 31.3146 14.5442C31.8146 14.8448 32.4697 14.805 32.775 14.4556L34.6682 12.2893C34.7388 12.2085 34.7023 12.0867 34.5868 12.0172C34.4712 11.9477 34.3203 11.9569 34.2497 12.0377L32.3565 14.2041C32.1921 14.3922 31.8393 14.4136 31.5702 14.2517C31.301 14.0899 31.2157 13.8051 31.3801 13.617L34.3111 10.2631C34.3563 10.2113 34.4535 10.2054 34.5277 10.25L35.2351 10.6753C35.3093 10.7199 35.3327 10.7983 35.2874 10.8502L34.8389 11.3634C34.7683 11.4442 34.8048 11.5659 34.9204 11.6354C35.0359 11.7049 35.1868 11.6958 35.2574 11.615L35.7059 11.1018C35.7852 11.0111 35.8132 10.9005 35.7957 10.7893C35.9285 10.7685 36.0465 10.7121 36.1258 10.6213L36.2566 10.4716C36.3884 10.3208 36.4383 10.1271 36.3989 9.92945L37.1807 9.03478C38.2531 9.38419 39.271 9.11612 39.9979 8.28432C40.4726 7.74109 40.7844 7.00537 40.8319 6.31625C40.8861 5.52969 40.6028 4.90825 40.0342 4.56637V4.56637ZM37.149 8.62635C37.0403 8.58377 36.9205 8.60221 36.8606 8.67068L35.9298 9.73584C35.8948 9.77595 35.8848 9.82845 35.9023 9.88107C35.9436 10.0052 35.9208 10.1255 35.8382 10.22L35.7073 10.3698C35.662 10.4216 35.5649 10.4275 35.4907 10.3829L34.7833 9.95757C34.7091 9.91299 34.6857 9.83455 34.731 9.78273L34.8618 9.63301C34.9446 9.53826 35.0759 9.48283 35.2314 9.47692C35.2973 9.47442 35.3546 9.45023 35.3897 9.41005L36.3198 8.34577C36.3797 8.27726 36.3635 8.17702 36.2808 8.10459C35.582 7.4924 35.5547 6.74613 36.2039 6.00322C36.6382 5.50628 37.3199 5.07228 38.0276 4.84229C38.7386 4.61119 39.3767 4.61723 39.7786 4.85883C40.1804 5.10042 40.3858 5.60159 40.3423 6.2339C40.2989 6.86333 40.0138 7.5358 39.5795 8.03273C38.9306 8.77532 38.0674 8.98614 37.149 8.62635Z" fill="black"/>
<path d="M40.0189 13.9233C40.1507 13.7725 40.2006 13.5788 40.1612 13.3812L43.3357 9.74847C43.4063 9.66771 43.3699 9.54593 43.2543 9.47644C43.1387 9.40695 42.9879 9.41612 42.9173 9.49688L39.6921 13.1875C39.657 13.2276 39.6471 13.2801 39.6646 13.3328C39.7058 13.4569 39.683 13.5772 39.6004 13.6717L39.4696 13.8214C39.4243 13.8733 39.3271 13.8792 39.253 13.8346L38.5456 13.4093C38.4714 13.3647 38.4479 13.2862 38.4932 13.2344L38.6241 13.0847C38.7069 12.9899 38.8381 12.9345 38.9937 12.9286C39.0596 12.9261 39.1169 12.9019 39.152 12.8617L39.754 12.1729C39.8246 12.0921 39.7882 11.9703 39.6726 11.9008L39.1829 11.6064L42.1842 8.17209C42.6647 7.62217 43.587 7.45423 44.4592 7.73251L43.501 8.82897C43.4304 8.90973 43.4669 9.03151 43.5824 9.101C43.698 9.17049 43.8489 9.16133 43.9195 9.08057L45.0395 7.79889C45.0771 7.75586 45.0857 7.69873 45.063 7.64268C45.0402 7.58662 44.9885 7.53734 44.9216 7.50803C43.7506 6.99447 42.4234 7.16794 41.7657 7.92052L38.6367 11.5011C38.5661 11.5819 38.6025 11.7037 38.7181 11.7732L39.2078 12.0676L38.7844 12.5521C38.5448 12.5822 38.3377 12.6819 38.2056 12.8332L38.0748 12.9829C37.9955 13.0736 37.9675 13.1841 37.9849 13.2953C37.8521 13.3161 37.7342 13.3726 37.6549 13.4633L35.4055 16.0373C35.1002 16.3867 35.2585 16.9155 35.7584 17.2161C36.2584 17.5167 36.9135 17.4769 37.2188 17.1275L39.4682 14.5535C39.5475 14.4628 39.5755 14.3523 39.5581 14.2411C39.6909 14.2203 39.8088 14.1638 39.8881 14.0731L40.0189 13.9234L40.0189 13.9233ZM36.8003 16.8759C36.6359 17.064 36.2831 17.0854 36.014 16.9236C35.7448 16.7617 35.6595 16.477 35.8239 16.2889L38.0733 13.7149C38.1186 13.663 38.2158 13.6571 38.2899 13.7017L38.9974 14.1271C39.0715 14.1716 39.095 14.2501 39.0497 14.3019L36.8003 16.8759L36.8003 16.8759Z" fill="black"/>
</g>
<defs>
<clipPath id="clip0">
<rect width="16.6583" height="13.2509" fill="white" transform="matrix(0.857025 0.515274 -0.658031 0.752991 32.4391 0)"/>
</clipPath>
</defs>
</svg>
