<svg width="214" height="87" viewBox="0 0 214 87" fill="none" xmlns="http://www.w3.org/2000/svg">
<path d="M37.869 65.24C34.061 65.24 30.749 64.552 27.933 63.176C25.117 61.768 22.957 59.784 21.453 57.224C19.949 54.664 19.197 51.688 19.197 48.296C19.197 43.592 20.077 39.416 21.837 35.768C23.629 32.12 26.045 29.304 29.085 27.32C32.125 25.304 35.501 24.296 39.213 24.296C42.669 24.296 45.293 25.192 47.085 26.984C48.877 28.744 49.773 31.08 49.773 33.992C49.773 35.944 49.421 37.512 48.717 38.696C48.045 39.88 47.069 40.472 45.789 40.472C44.893 40.472 44.189 40.264 43.677 39.848C43.165 39.432 42.909 38.824 42.909 38.024C42.909 37.736 42.973 37.208 43.101 36.44C43.293 35.48 43.389 34.712 43.389 34.136C43.389 31.224 41.837 29.768 38.733 29.768C36.621 29.768 34.605 30.456 32.685 31.832C30.765 33.208 29.213 35.24 28.029 37.928C26.845 40.584 26.253 43.752 26.253 47.432C26.253 51.272 27.325 54.248 29.469 56.36C31.613 58.44 34.781 59.48 38.973 59.48C41.053 59.48 43.149 59.224 45.261 58.712C47.405 58.168 49.773 57.352 52.365 56.264C52.845 56.072 53.245 55.976 53.565 55.976C54.077 55.976 54.461 56.168 54.717 56.552C54.973 56.936 55.101 57.432 55.101 58.04C55.101 59.992 54.045 61.432 51.933 62.36C49.661 63.352 47.293 64.088 44.829 64.568C42.397 65.016 40.077 65.24 37.869 65.24ZM75.0132 50.264C75.4292 50.264 75.7492 50.472 75.9732 50.888C76.1972 51.304 76.3092 51.832 76.3092 52.472C76.3092 54.008 75.8452 54.92 74.9172 55.208C72.9972 55.88 70.8852 56.264 68.5812 56.36C67.9732 59.048 66.7732 61.208 64.9812 62.84C63.1892 64.44 61.1572 65.24 58.8852 65.24C56.9652 65.24 55.3172 64.776 53.9412 63.848C52.5972 62.92 51.5732 61.688 50.8692 60.152C50.1652 58.616 49.8132 56.952 49.8132 55.16C49.8132 52.728 50.2772 50.568 51.2052 48.68C52.1332 46.76 53.4132 45.272 55.0452 44.216C56.6772 43.128 58.4852 42.584 60.4692 42.584C62.9012 42.584 64.8532 43.432 66.3252 45.128C67.8292 46.792 68.7092 48.856 68.9652 51.32C70.4692 51.224 72.2612 50.904 74.3412 50.36C74.5972 50.296 74.8212 50.264 75.0132 50.264ZM59.2692 60.152C60.2932 60.152 61.1732 59.736 61.9092 58.904C62.6772 58.072 63.1892 56.872 63.4452 55.304C62.4532 54.632 61.6852 53.752 61.1412 52.664C60.6292 51.576 60.3732 50.424 60.3732 49.208C60.3732 48.696 60.4212 48.184 60.5172 47.672H60.2772C58.9972 47.672 57.9252 48.296 57.0612 49.544C56.2292 50.76 55.8132 52.488 55.8132 54.728C55.8132 56.488 56.1492 57.832 56.8212 58.76C57.5252 59.688 58.3412 60.152 59.2692 60.152ZM96.3361 50.264C96.7521 50.264 97.0721 50.472 97.2961 50.888C97.5201 51.304 97.6321 51.832 97.6321 52.472C97.6321 54.008 97.1681 54.92 96.2401 55.208C94.3201 55.88 92.2081 56.264 89.9041 56.36C89.2961 59.048 88.0961 61.208 86.3041 62.84C84.5121 64.44 82.4801 65.24 80.2081 65.24C78.2881 65.24 76.6401 64.776 75.2641 63.848C73.9201 62.92 72.8961 61.688 72.1921 60.152C71.4881 58.616 71.1361 56.952 71.1361 55.16C71.1361 52.728 71.6001 50.568 72.5281 48.68C73.4561 46.76 74.7361 45.272 76.3681 44.216C78.0001 43.128 79.8081 42.584 81.7921 42.584C84.2241 42.584 86.1761 43.432 87.6481 45.128C89.1521 46.792 90.0321 48.856 90.2881 51.32C91.7921 51.224 93.5841 50.904 95.6641 50.36C95.9201 50.296 96.1441 50.264 96.3361 50.264ZM80.5921 60.152C81.6161 60.152 82.4961 59.736 83.2321 58.904C84.0001 58.072 84.5121 56.872 84.7681 55.304C83.7761 54.632 83.0081 53.752 82.4641 52.664C81.9521 51.576 81.6961 50.424 81.6961 49.208C81.6961 48.696 81.7441 48.184 81.8401 47.672H81.6001C80.3201 47.672 79.2481 48.296 78.3841 49.544C77.5521 50.76 77.1361 52.488 77.1361 54.728C77.1361 56.488 77.4721 57.832 78.1441 58.76C78.8481 59.688 79.6641 60.152 80.5921 60.152ZM120.923 54.296C121.339 54.296 121.659 54.488 121.883 54.872C122.139 55.256 122.267 55.784 122.267 56.456C122.267 57.736 121.963 58.728 121.355 59.432C119.915 61.192 118.459 62.6 116.987 63.656C115.515 64.712 113.771 65.24 111.755 65.24C109.291 65.24 107.307 64.536 105.803 63.128C104.299 61.72 103.547 59.848 103.547 57.512C103.547 56.264 104.187 55.368 105.467 54.824C106.875 54.216 107.883 53.576 108.491 52.904C109.099 52.2 109.403 51.352 109.403 50.36C109.403 49.784 109.275 49.352 109.019 49.064C108.795 48.776 108.507 48.632 108.155 48.632C107.291 48.632 106.331 49.256 105.275 50.504C104.251 51.752 103.291 53.368 102.395 55.352C101.499 57.304 100.795 59.32 100.283 61.4C99.931 62.904 99.515 63.928 99.035 64.472C98.587 64.984 97.867 65.24 96.875 65.24C95.883 65.24 95.147 64.888 94.667 64.184C94.219 63.448 93.915 62.328 93.755 60.824C93.595 59.32 93.515 57.112 93.515 54.2C93.515 49.272 94.011 44.136 95.003 38.792C96.027 33.448 97.515 28.968 99.467 25.352C101.451 21.704 103.819 19.88 106.571 19.88C108.043 19.88 109.227 20.52 110.123 21.8C111.051 23.048 111.515 24.68 111.515 26.696C111.515 29.928 110.571 33.288 108.683 36.776C106.795 40.232 103.723 44.28 99.467 48.92C99.371 50.584 99.323 52.296 99.323 54.056C100.859 50.056 102.619 47.16 104.603 45.368C106.587 43.544 108.443 42.632 110.171 42.632C111.771 42.632 113.051 43.176 114.011 44.264C115.003 45.352 115.499 46.696 115.499 48.296C115.499 50.056 115.051 51.672 114.155 53.144C113.259 54.616 111.723 55.928 109.547 57.08C109.675 57.944 110.059 58.648 110.699 59.192C111.371 59.704 112.171 59.96 113.099 59.96C114.091 59.96 115.051 59.576 115.979 58.808C116.907 58.04 118.123 56.76 119.627 54.968C120.011 54.52 120.443 54.296 120.923 54.296ZM105.563 24.632C104.987 24.632 104.347 25.464 103.643 27.128C102.939 28.76 102.251 30.984 101.579 33.8C100.939 36.584 100.411 39.624 99.995 42.92C101.979 40.584 103.611 38.04 104.891 35.288C106.203 32.536 106.859 30.04 106.859 27.8C106.859 26.776 106.747 25.992 106.523 25.448C106.299 24.904 105.979 24.632 105.563 24.632ZM130.16 65.24C127.952 65.24 125.952 64.696 124.16 63.608C122.4 62.52 121.008 60.952 119.984 58.904C118.96 56.824 118.448 54.376 118.448 51.56C118.448 46.696 119.488 42.2 121.568 38.072C123.648 33.912 126.72 30.584 130.784 28.088C134.848 25.56 139.728 24.296 145.424 24.296C146.896 24.296 148.464 24.408 150.128 24.632C151.824 24.856 153.36 25.192 154.736 25.64C155.632 25.896 156.08 26.536 156.08 27.56C156.08 28.392 155.76 29.176 155.12 29.912C154.512 30.648 153.792 31.016 152.96 31.016C152.704 31.016 152.512 31 152.384 30.968C150.72 30.584 149.296 30.312 148.112 30.152C146.928 29.96 145.68 29.864 144.368 29.864C140.304 29.864 136.848 30.856 134 32.84C131.152 34.792 129.024 37.384 127.616 40.616C126.208 43.848 125.504 47.336 125.504 51.08C125.504 53.8 126.032 55.912 127.088 57.416C128.176 58.888 129.584 59.624 131.312 59.624C133.264 59.624 134.976 58.824 136.448 57.224C137.92 55.624 139.264 53.032 140.48 49.448C141.696 45.864 142.896 41 144.08 34.856C144.272 33.96 144.656 33.352 145.232 33.032C145.808 32.712 146.576 32.552 147.536 32.552C149.808 32.552 150.944 33.288 150.944 34.76C150.944 35.016 150.896 35.336 150.8 35.72C149.968 38.824 149.2 42.264 148.496 46.04C147.824 49.784 147.488 52.632 147.488 54.584C147.488 56.312 147.744 57.576 148.256 58.376C148.768 59.144 149.552 59.528 150.608 59.528C151.632 59.528 152.608 59.192 153.536 58.52C154.464 57.816 155.632 56.632 157.04 54.968C157.424 54.52 157.856 54.296 158.336 54.296C158.752 54.296 159.072 54.488 159.296 54.872C159.552 55.256 159.68 55.784 159.68 56.456C159.68 57.704 159.376 58.696 158.768 59.432C157.2 61.32 155.664 62.76 154.16 63.752C152.656 64.744 150.816 65.24 148.64 65.24C146.4 65.24 144.592 64.6 143.216 63.32C141.84 62.008 140.976 60.168 140.624 57.8C138.256 62.76 134.768 65.24 130.16 65.24ZM181.097 54.296C181.513 54.296 181.833 54.488 182.057 54.872C182.313 55.256 182.441 55.784 182.441 56.456C182.441 57.736 182.137 58.728 181.529 59.432C180.153 61.128 178.665 62.52 177.065 63.608C175.497 64.696 173.705 65.24 171.689 65.24C169.993 65.24 168.617 64.632 167.561 63.416C165.737 64.6 163.833 65.208 161.849 65.24C161.433 71.416 160.489 76.568 159.017 80.696C157.545 84.856 155.385 86.936 152.537 86.936C150.809 86.936 149.529 86.312 148.697 85.064C147.865 83.816 147.449 82.088 147.449 79.88C147.449 76.744 148.169 73.08 149.609 68.888C151.049 64.728 153.273 60.136 156.281 55.112C156.281 50.44 156.249 47.192 156.185 45.368C156.153 44.44 156.521 43.704 157.289 43.16C158.057 42.616 159.017 42.344 160.169 42.344C160.841 42.344 161.321 42.488 161.609 42.776C161.929 43.032 162.105 43.56 162.137 44.36C162.137 45.16 162.153 45.752 162.185 46.136C163.209 44.856 164.217 43.944 165.209 43.4C166.201 42.824 167.257 42.536 168.377 42.536C170.169 42.536 171.625 43.256 172.745 44.696C173.897 46.136 174.473 48.024 174.473 50.36C174.473 52.056 174.201 53.704 173.657 55.304C173.113 56.904 172.361 58.36 171.401 59.672C172.073 59.864 172.633 59.96 173.081 59.96C174.137 59.96 175.145 59.576 176.105 58.808C177.065 58.04 178.297 56.76 179.801 54.968C180.185 54.52 180.617 54.296 181.097 54.296ZM162.089 60.632C163.241 60.376 164.297 59.752 165.257 58.76C166.249 57.736 167.033 56.488 167.609 55.016C168.185 53.512 168.473 51.944 168.473 50.312C168.473 49.352 168.281 48.632 167.897 48.152C167.513 47.64 167.001 47.384 166.361 47.384C165.209 47.384 163.817 48.6 162.185 51.032C162.153 52.44 162.137 54.504 162.137 57.224C162.137 58.696 162.121 59.832 162.089 60.632ZM152.921 82.232C153.785 82.232 154.505 80.344 155.081 76.568C155.657 72.824 156.025 68.152 156.185 62.552C154.809 65.752 153.721 68.808 152.921 71.72C152.121 74.632 151.721 77.08 151.721 79.064C151.721 80.088 151.849 80.872 152.105 81.416C152.329 81.96 152.601 82.232 152.921 82.232ZM197.25 50.36C197.25 52.888 196.658 55.288 195.474 57.56C194.322 59.8 192.77 61.624 190.818 63.032C188.898 64.44 186.834 65.176 184.626 65.24C184.21 71.416 183.266 76.568 181.794 80.696C180.322 84.856 178.162 86.936 175.313 86.936C173.585 86.936 172.305 86.312 171.473 85.064C170.641 83.816 170.225 82.088 170.225 79.88C170.225 76.744 170.945 73.08 172.385 68.888C173.825 64.728 176.05 60.136 179.058 55.112C179.058 50.44 179.026 47.192 178.962 45.368C178.93 44.44 179.298 43.704 180.066 43.16C180.834 42.616 181.794 42.344 182.946 42.344C183.618 42.344 184.098 42.488 184.386 42.776C184.706 43.032 184.882 43.56 184.914 44.36C184.914 45.16 184.93 45.752 184.962 46.136C185.986 44.856 186.994 43.944 187.986 43.4C188.978 42.824 190.034 42.536 191.154 42.536C192.946 42.536 194.402 43.256 195.522 44.696C196.674 46.136 197.25 48.024 197.25 50.36ZM184.866 60.632C186.018 60.376 187.074 59.752 188.034 58.76C189.026 57.736 189.81 56.488 190.386 55.016C190.962 53.512 191.25 51.944 191.25 50.312C191.25 49.352 191.058 48.632 190.674 48.152C190.29 47.64 189.778 47.384 189.138 47.384C187.986 47.384 186.594 48.6 184.962 51.032C184.93 52.44 184.914 54.504 184.914 57.224C184.914 58.696 184.898 59.832 184.866 60.632ZM175.697 82.232C176.562 82.232 177.282 80.344 177.858 76.568C178.434 72.824 178.802 68.152 178.962 62.552C177.586 65.752 176.498 68.808 175.697 71.72C174.897 74.632 174.497 77.08 174.497 79.064C174.497 80.088 174.625 80.872 174.881 81.416C175.105 81.96 175.377 82.232 175.697 82.232Z" fill="black"/>
<g clip-path="url(#clip0)">
<path d="M73.0822 6.38251C72.8532 6.21651 72.5542 6.2384 72.4144 6.43132L68.8694 11.322L67.7735 10.5277L71.3185 5.63697C71.4584 5.44405 71.3862 5.15313 71.1571 4.98713C70.9281 4.82113 70.6292 4.84302 70.4893 5.03594L66.9443 9.92665L65.8728 9.15L69.4179 4.2593C69.5577 4.06638 69.4855 3.77546 69.2565 3.60946C69.0275 3.44346 68.7286 3.46535 68.5887 3.65827L65.0437 8.54898L63.9456 7.75306L67.4907 2.86235C67.6305 2.66943 67.5583 2.37852 67.3293 2.21252C67.1003 2.04651 66.8014 2.06841 66.6615 2.26133L61.4485 9.45316C60.9099 10.1962 60.8841 11.2318 61.3809 12.1559L61.8274 12.9862L60.2744 15.1286C59.7998 15.2007 59.3895 15.4388 59.1276 15.8001L58.8684 16.1578C58.7113 16.3745 58.6558 16.6386 58.6904 16.9041C58.4272 16.9538 58.1935 17.0888 58.0364 17.3055L54.0753 22.7702C53.9355 22.9631 54.0077 23.254 54.2367 23.42C54.4657 23.586 54.7646 23.5641 54.9045 23.3712L58.8656 17.9065C58.9553 17.7827 59.1479 17.7686 59.2949 17.8751L60.6966 18.8912C60.8435 18.9977 60.89 19.185 60.8003 19.3088L54.9927 27.3209C54.6669 27.7703 53.9679 27.8214 53.4345 27.4348C52.9011 27.0482 52.7322 26.3679 53.058 25.9185L53.7255 24.9976C53.8653 24.8047 53.7931 24.5138 53.5641 24.3478C53.3351 24.1818 53.0362 24.2037 52.8963 24.3966L52.2288 25.3175C51.6238 26.1521 51.9375 27.4154 52.9281 28.1334C53.9187 28.8515 55.2169 28.7566 55.8219 27.9219L61.6294 19.9099C61.7865 19.6931 61.842 19.4291 61.8074 19.1635C62.0706 19.1138 62.3043 18.9788 62.4614 18.7621L62.7206 18.4045C62.9818 18.0442 63.0806 17.5814 63.0027 17.1093L64.5572 14.9647L65.484 15.13C66.5162 15.3141 67.4918 14.9672 68.03 14.2247L73.2436 7.03235C73.3834 6.83943 73.3112 6.54847 73.0822 6.38251V6.38251ZM67.2009 13.6237C66.8435 14.1167 66.1956 14.3471 65.5102 14.2248L64.3023 14.0094C64.1284 13.9784 63.9653 14.0364 63.8746 14.1615L62.0731 16.6468C62.0037 16.7426 61.984 16.868 62.0186 16.9937C62.1003 17.2901 62.0551 17.5777 61.8915 17.8034L61.6322 18.1611C61.5425 18.2849 61.35 18.299 61.203 18.1925L59.8013 17.1765C59.6544 17.07 59.6078 16.8825 59.6976 16.7587L59.9568 16.4011C60.1209 16.1747 60.381 16.0423 60.6891 16.0282C60.8198 16.0223 60.9333 15.9645 61.0029 15.8685L62.8032 13.3849C62.8939 13.2597 62.8982 13.0865 62.8145 12.9309L62.2328 11.8489C61.9028 11.2353 61.92 10.5476 62.2776 10.0542L63.4392 8.45176L68.3628 12.0207L67.2009 13.6236L67.2009 13.6237Z" fill="black"/>
<path d="M76.7678 17.9873C76.2526 18.6981 75.6663 19.1173 75.1171 19.1677C74.5932 19.2158 74.0607 18.9196 73.7062 18.6627C73.3518 18.4058 72.9046 17.9919 72.7874 17.4789C72.6645 16.9413 72.8804 16.2538 73.3957 15.543C73.5355 15.3501 73.4633 15.0592 73.2343 14.8932C73.0053 14.7272 72.7063 14.7491 72.5665 14.942C71.9102 15.8474 71.6586 16.7425 71.8389 17.5307C72.03 18.367 72.6845 18.9878 73.1998 19.3613C73.7151 19.7349 74.5088 20.1636 75.3631 20.0853C76.1682 20.0113 76.9407 19.4937 77.5969 18.5883C77.7368 18.3954 77.6646 18.1045 77.4356 17.9385C77.2066 17.7725 76.9076 17.7944 76.7678 17.9873Z" fill="black"/>
<path d="M79.3269 10.9086C78.2002 10.0918 76.6146 10.0202 74.8622 10.7067C73.3269 11.3083 71.8488 12.4422 70.9082 13.7399C69.4672 15.7279 69.4867 17.8448 70.9429 19.605L69.3955 21.7396C68.921 21.8117 68.5106 22.0499 68.2488 22.4111L67.9896 22.7688C67.8325 22.9854 67.777 23.2495 67.8116 23.5151C67.5484 23.5648 67.3147 23.6997 67.1576 23.9164L61.35 31.9285C60.745 32.7631 61.0587 34.0264 62.0494 34.7445C63.04 35.4625 64.3381 35.3676 64.9431 34.5329L68.6944 29.3577C68.8342 29.1648 68.762 28.8738 68.533 28.7078C68.304 28.5418 68.0051 28.5637 67.8652 28.7567L64.1139 33.9319C63.7881 34.3814 63.0891 34.4325 62.5557 34.0458C62.0223 33.6592 61.8534 32.979 62.1792 32.5296L67.9867 24.5175C68.0765 24.3937 68.2691 24.3796 68.416 24.4861L69.8177 25.5022C69.9647 25.6087 70.0111 25.7961 69.9214 25.9199L69.0327 27.1459C68.8928 27.3389 68.965 27.6298 69.194 27.7958C69.4231 27.9618 69.722 27.9399 69.8618 27.747L70.7506 26.5209C70.9076 26.3042 70.9632 26.0402 70.9285 25.7746C71.1917 25.7248 71.4255 25.5899 71.5825 25.3732L71.8418 25.0156C72.1029 24.6553 72.2018 24.1926 72.1238 23.7204L73.673 21.5831C75.7978 22.4178 77.8148 21.7774 79.2551 19.7904C80.1958 18.4926 80.8136 16.7351 80.9076 15.0888C81.015 13.2099 80.4537 11.7253 79.3269 10.9086V10.9086ZM73.6101 20.6074C73.3947 20.5057 73.1573 20.5497 73.0387 20.7133L71.1943 23.2579C71.1248 23.3537 71.1052 23.4791 71.1398 23.6048C71.2215 23.9013 71.1763 24.1888 71.0127 24.4146L70.7534 24.7722C70.6637 24.896 70.4711 24.9101 70.3242 24.8036L68.9224 23.7876C68.7755 23.6811 68.729 23.4937 68.8188 23.3699L69.078 23.0122C69.2421 22.7859 69.5022 22.6534 69.8104 22.6393C69.941 22.6334 70.0545 22.5756 70.1241 22.4796L71.967 19.9371C72.0856 19.7735 72.0535 19.534 71.8897 19.361C70.5051 17.8985 70.4509 16.1158 71.7373 14.3411C72.5979 13.1539 73.9487 12.1171 75.3511 11.5677C76.7597 11.0156 78.0243 11.0301 78.8205 11.6072C79.6167 12.1844 80.0238 13.3816 79.9375 14.8921C79.8515 16.3958 79.2865 18.0022 78.4261 19.1893C77.1402 20.9633 75.4298 21.4669 73.6101 20.6074Z" fill="black"/>
<path d="M79.2969 33.2613C79.5581 32.901 79.6569 32.4383 79.5789 31.9661L85.8692 23.288C86.0091 23.0951 85.9369 22.8042 85.7079 22.6382C85.4788 22.4722 85.1799 22.4941 85.0401 22.687L78.6493 31.5036C78.5799 31.5994 78.5602 31.7248 78.5949 31.8506C78.6766 32.1469 78.6314 32.4345 78.4678 32.6602L78.2085 33.0179C78.1188 33.1417 77.9263 33.1558 77.7793 33.0493L76.3776 32.0333C76.2307 31.9268 76.1841 31.7394 76.2739 31.6156L76.5331 31.2579C76.6972 31.0315 76.9573 30.8991 77.2654 30.8851C77.3961 30.8791 77.5096 30.8213 77.5792 30.7253L78.7721 29.0796C78.9119 28.8867 78.8397 28.5958 78.6107 28.4298L77.6405 27.7265L83.5874 19.5222C84.5396 18.2086 86.3671 17.8074 88.0953 18.4721L86.1967 21.0915C86.0568 21.2844 86.129 21.5753 86.3581 21.7413C86.5871 21.9073 86.886 21.8854 87.0258 21.6925L89.2452 18.6307C89.3197 18.5279 89.3367 18.3914 89.2917 18.2576C89.2466 18.1236 89.1441 18.0059 89.0115 17.9359C86.6913 16.709 84.0614 17.1234 82.7583 18.9213L76.5581 27.475C76.4183 27.6679 76.4905 27.9588 76.7195 28.1248L77.6897 28.8281L76.8507 29.9855C76.3761 30.0576 75.9658 30.2958 75.7039 30.657L75.4447 31.0147C75.2876 31.2314 75.2321 31.4955 75.2667 31.761C75.0035 31.8108 74.7698 31.9457 74.6127 32.1624L70.1556 38.3114C69.5506 39.146 69.8643 40.4093 70.8549 41.1274C71.8455 41.8454 73.1437 41.7505 73.7487 40.9158L78.2058 34.7668C78.3629 34.5501 78.4184 34.286 78.3838 34.0204C78.647 33.9707 78.8807 33.8358 79.0378 33.6191L79.297 33.2614L79.2969 33.2613ZM72.9194 40.3147C72.5937 40.7641 71.8946 40.8152 71.3612 40.4286C70.8279 40.042 70.6589 39.3617 70.9847 38.9123L75.4418 32.7633C75.5316 32.6395 75.7241 32.6254 75.871 32.7319L77.2728 33.748C77.4197 33.8545 77.4662 34.0419 77.3765 34.1657L72.9194 40.3146L72.9194 40.3147Z" fill="black"/>
</g>
<defs>
<clipPath id="clip0">
<rect width="34.9388" height="29.4392" fill="white" transform="translate(64.2776) rotate(35.9366)"/>
</clipPath>
</defs>
</svg>
