<svg width="40" height="40" viewBox="0 0 40 40" fill="none" xmlns="http://www.w3.org/2000/svg">
<path d="M19.855 21.5531C19.8965 21.5531 19.9379 21.5531 19.9876 21.5531C20.0041 21.5531 20.0207 21.5531 20.0373 21.5531C20.0621 21.5531 20.0952 21.5531 20.1201 21.5531C22.5471 21.5117 24.5102 20.6585 25.9598 19.0267C29.1489 15.4318 28.6188 9.269 28.5608 8.68089C28.3537 4.26589 26.2663 2.15366 24.5434 1.16794C23.2595 0.430731 21.7602 0.0331332 20.087 0H20.029C20.0207 0 20.0041 0 19.9958 0H19.9461C19.0267 0 17.2209 0.149099 15.4897 1.13481C13.7503 2.12052 11.6297 4.23276 11.4226 8.68089C11.3647 9.269 10.8345 15.4318 14.0236 19.0267C15.4649 20.6585 17.428 21.5117 19.855 21.5531ZM13.6343 8.88797C13.6343 8.86312 13.6426 8.83827 13.6426 8.8217C13.9159 2.88258 18.1321 2.24477 19.9379 2.24477H19.971C19.9876 2.24477 20.0124 2.24477 20.0373 2.24477C22.2738 2.29447 26.0758 3.20563 26.3326 8.8217C26.3326 8.84655 26.3326 8.8714 26.3408 8.88797C26.3491 8.94595 26.929 14.5786 24.2949 17.544C23.2512 18.7202 21.8596 19.3001 20.029 19.3166C20.0124 19.3166 20.0041 19.3166 19.9876 19.3166C19.971 19.3166 19.9627 19.3166 19.9461 19.3166C18.1238 19.3001 16.724 18.7202 15.6885 17.544C13.0627 14.5952 13.626 8.93767 13.6343 8.88797Z" fill="white"/>
<path d="M37.0098 31.7747C37.0098 31.7664 37.0098 31.7581 37.0098 31.7498C37.0098 31.6836 37.0015 31.6173 37.0015 31.5428C36.9518 29.9027 36.8441 26.0675 33.2492 24.8416C33.2243 24.8333 33.1912 24.825 33.1663 24.8167C29.4306 23.8642 26.3243 21.7105 26.2912 21.6856C25.7859 21.3295 25.0901 21.4537 24.7339 21.959C24.3778 22.4643 24.502 23.1601 25.0073 23.5163C25.1481 23.6157 28.4448 25.9101 32.5699 26.9704C34.4999 27.6579 34.7153 29.7204 34.7733 31.609C34.7733 31.6836 34.7733 31.7498 34.7816 31.8161C34.7898 32.5616 34.7401 33.713 34.6076 34.3756C33.2657 35.1377 28.0058 37.7718 20.0042 37.7718C12.0356 37.7718 6.74262 35.1294 5.39245 34.3674C5.25991 33.7047 5.20193 32.5533 5.2185 31.8078C5.2185 31.7416 5.22678 31.6753 5.22678 31.6007C5.28476 29.7122 5.50013 27.6496 7.43014 26.9621C11.5552 25.9018 14.852 23.5991 14.9928 23.508C15.4981 23.1518 15.6223 22.456 15.2661 21.9507C14.9099 21.4454 14.2142 21.3212 13.7089 21.6774C13.6757 21.7022 10.5861 23.8559 6.83374 24.8084C6.80061 24.8167 6.77576 24.825 6.75091 24.8333C3.15596 26.0675 3.04827 29.9027 2.99858 31.5345C2.99858 31.609 2.99857 31.6753 2.99029 31.7416C2.99029 31.7498 2.99029 31.7581 2.99029 31.7664C2.98201 32.1971 2.97373 34.4088 3.41274 35.5187C3.49557 35.7341 3.64467 35.9163 3.84347 36.0406C4.09197 36.2063 10.0477 40 20.0125 40C29.9773 40 35.9329 36.198 36.1814 36.0406C36.372 35.9163 36.5293 35.7341 36.6122 35.5187C37.0263 34.4171 37.0181 32.2054 37.0098 31.7747Z" fill="white"/>
</svg>
