<svg width="93" height="69" viewBox="0 0 93 69" fill="none" xmlns="http://www.w3.org/2000/svg">
<g clip-path="url(#clip0)">
<path fill-rule="evenodd" clip-rule="evenodd" d="M78.4666 47.6776C77.1916 43.6546 72.9464 41.7684 67.6207 41.0725C66.3967 40.9124 65.1217 40.8135 63.8112 40.7682C62.8434 40.7455 62.0395 40.5971 61.3583 40.357C57.5325 45.7382 40.0454 45.3581 37.1263 40.357V40.3191C36.4196 40.5818 35.5796 40.745 34.5656 40.7682C33.2906 40.814 32.0518 40.9051 30.8633 41.0572C25.6865 41.7152 21.518 43.4872 20.0635 47.2327C22.312 48.8341 40.5626 61.0446 40.7059 61.7142H79.025V54.8691C79.025 54.1389 79.4706 53.4809 80.1723 53.0397L78.4666 47.6776Z" fill="#64B0D9"/>
<path fill-rule="evenodd" clip-rule="evenodd" d="M34.5656 40.7682C33.2906 40.8135 32.0518 40.9051 30.8633 41.0572V47.2327L33.6439 49.0847L37.1263 47.2327V40.3191C36.4196 40.5818 35.5796 40.745 34.5656 40.7682Z" fill="#E6E6E6"/>
<path fill-rule="evenodd" clip-rule="evenodd" d="M30.5974 60.0291H38.0532C39.39 60.0291 40.5061 60.763 40.7061 61.7142H72.5933L70.1511 51.222C69.9205 50.2028 69.0137 49.3395 67.6209 49.3395V41.0725C66.3969 40.9124 65.1219 40.8135 63.8114 40.7682C62.8436 40.7455 62.0397 40.5971 61.3585 40.357V49.3395H42.2118C42.2522 49.568 32.8303 59.3485 30.5974 60.0291Z" fill="#E6E6E6"/>
<path fill-rule="evenodd" clip-rule="evenodd" d="M58.3628 37.9613L49.6419 35.9193L40.0405 37.9234L40.015 37.9576C39.3743 38.9657 38.4682 39.8175 37.1265 40.3191V40.357C40.0455 45.3581 57.5334 45.7382 61.3585 40.357C59.955 39.8627 59.0638 38.9731 58.3628 37.9613Z" fill="#FCC368"/>
<path fill-rule="evenodd" clip-rule="evenodd" d="M59.6733 18.4834C52.7298 17.7191 45.7444 17.7038 38.7186 18.4834C36.6908 18.7077 34.6637 19.0004 32.6301 19.3578V29.2721C32.6301 32.7818 36.0763 35.8814 40.0405 37.9234C43.2767 39.5964 46.8612 40.5587 49.1708 40.4676C52.0898 40.3455 55.4388 39.4405 58.3628 37.9613C62.5207 35.8545 65.8186 32.5843 65.8186 28.743V19.3542C63.7751 19.0004 61.7267 18.7077 59.6733 18.4834Z" fill="#FFDDA6"/>
<path fill-rule="evenodd" clip-rule="evenodd" d="M49.6569 2.90694C46.4569 2.91431 43.0873 4.13141 41.4128 6.5535H36.9165C30.4179 6.5535 26.5466 11.8552 32.6302 14.6652V22.0389C34.663 21.6815 36.6909 21.3925 38.7187 21.164C45.7445 20.3849 52.7299 20.3996 59.6734 21.164C61.7268 21.3925 63.7752 21.6815 65.8186 22.0389V14.6652C71.9022 11.8552 68.1998 6.5535 61.7012 6.5535H56.8672C55.9199 4.13141 52.9143 2.91431 49.7186 2.90694H49.6569Z" fill="#E6E6E6"/>
<path fill-rule="evenodd" clip-rule="evenodd" d="M65.8185 14.6652C71.9021 11.8552 68.1997 6.55403 61.7011 6.55403H57.9072C63.7346 6.55403 67.3341 10.4212 63.6168 13.3307C62.4234 14.262 62.0445 13.7793 62.0445 15.0837L62.0289 21.4535C63.294 21.6246 64.5591 21.8183 65.8185 22.0389V14.6652Z" fill="#C2C7CC"/>
<path fill-rule="evenodd" clip-rule="evenodd" d="M65.8185 26.9716C65.6035 26.941 63.6779 26.6673 62.0289 25.6934V28.1581C62.0289 31.9989 58.726 35.2728 54.5682 37.3759C51.6442 38.8594 48.2952 39.7606 45.3762 39.8822C45.2733 39.8859 45.1711 39.8896 45.064 39.8896C46.61 40.3044 48.044 40.5134 49.1707 40.4676C52.0891 40.346 55.4388 39.4411 58.3628 37.9618C62.5206 35.855 65.8185 32.5843 65.8185 28.7435V26.9716Z" fill="#FCC368"/>
<path fill-rule="evenodd" clip-rule="evenodd" d="M61.3585 40.357C59.955 39.8627 59.0638 38.9731 58.3628 37.9618C56.6422 38.8325 54.7676 39.5058 52.9292 39.9354C53.7743 41.1483 54.471 41.7036 56.9132 42.5628C57.2048 42.666 57.5227 42.7533 57.8605 42.8181C59.3973 42.2053 60.6262 41.3841 61.3585 40.357Z" fill="#EDA93B"/>
<path fill-rule="evenodd" clip-rule="evenodd" d="M78.4666 47.6776C77.1916 43.6546 72.9465 41.7684 67.6207 41.0725C66.3968 40.9124 65.1217 40.8135 63.8112 40.7682C62.8434 40.7455 62.0395 40.5971 61.3584 40.357C60.6261 41.3841 59.3965 42.2053 57.8604 42.8176C58.3166 42.9092 58.8133 42.9623 59.366 42.9734C60.0422 43.0002 60.7027 43.0345 61.3584 43.0876C61.9778 43.1371 62.5816 43.1982 63.1762 43.2782C64.7684 43.4872 66.269 43.8025 67.6207 44.2479C70.7803 45.297 73.1309 47.0658 74.0271 49.8875C75.317 53.9526 75.8087 57.5423 75.8087 61.7142H79.025V54.8691C79.025 54.1389 79.4706 53.4809 80.1723 53.0397L78.4666 47.6776Z" fill="#4A83C9"/>
<path fill-rule="evenodd" clip-rule="evenodd" d="M67.6207 41.0725C66.3968 40.9124 65.1218 40.8135 63.8113 40.7682C62.8435 40.7455 62.0396 40.5971 61.3584 40.357V43.0876C61.9778 43.1371 62.5816 43.1982 63.1762 43.2782C64.7684 43.4872 66.2691 43.8025 67.6207 44.2479V41.0725Z" fill="#C2C7CC"/>
<path fill-rule="evenodd" clip-rule="evenodd" d="M90.4962 56.7321C90.4962 54.3895 87.9149 52.4733 84.7603 52.4733H82.2514C81.4624 52.4733 80.7358 52.686 80.1725 53.0397C79.4707 53.4809 79.0251 54.1389 79.0251 54.8691V62.5697C79.0251 63.8894 80.4797 64.9697 82.2514 64.9697H84.7603C87.9149 64.9697 90.4962 63.0529 90.4962 60.7103V56.7321Z" fill="#FFDDA6"/>
<path fill-rule="evenodd" clip-rule="evenodd" d="M87.6742 21.4346H81.8468C79.67 21.4346 77.8933 22.7575 77.8933 24.3699V33.2381C77.8933 34.8543 79.67 36.174 81.8468 36.174H87.6742C88.8975 36.174 89.9937 35.7555 90.721 35.1017C91.2843 34.5921 91.627 33.9457 91.627 33.2381V24.3699C91.627 23.6666 91.2843 23.016 90.721 22.5101C89.9937 21.8562 88.8982 21.4346 87.6742 21.4346Z" fill="#E6E6E6"/>
<path fill-rule="evenodd" clip-rule="evenodd" d="M70.1501 51.222C69.9203 50.2028 69.0135 49.3395 67.6207 49.3395H63.9744L66.9601 61.7142H72.5931L70.1501 51.222Z" fill="#C2C7CC"/>
<path fill-rule="evenodd" clip-rule="evenodd" d="M90.4962 56.7321C90.4962 54.3895 87.9149 52.4733 84.7603 52.4733H82.2514C81.9186 52.4733 81.5958 52.5112 81.2886 52.5833C83.8237 53.0208 85.7288 54.7206 85.7288 56.7321V60.7098C85.7288 62.7218 83.8237 64.418 81.2886 64.8591C81.5958 64.9276 81.9186 64.9691 82.2514 64.9691H84.7603C87.9149 64.9691 90.4962 63.0524 90.4962 60.7098V56.7321Z" fill="#FCC368"/>
<path fill-rule="evenodd" clip-rule="evenodd" d="M52.3252 49.3395C52.1152 48.1566 50.7372 47.2327 49.0833 47.2327H43.5837C41.6531 47.2327 41.3253 48.5825 40.9109 49.9707C40.7009 50.6629 44.9148 51.4426 44.582 52.089H49.0833C50.8862 52.089 52.3557 50.9977 52.3557 49.6627C52.3557 49.5527 52.345 49.4458 52.3252 49.3395Z" fill="#FCC368"/>
<path fill-rule="evenodd" clip-rule="evenodd" d="M10.1393 47.2327H4.63972C2.84247 47.2327 1.37231 48.3282 1.37231 49.6627C1.37231 50.9977 2.84247 52.089 4.63972 52.089H9.13036L13.3961 49.0847L10.1393 47.2327Z" fill="#FCC368"/>
<path fill-rule="evenodd" clip-rule="evenodd" d="M37.1264 47.2327H10.1393C8.2094 47.2327 7.9121 48.6857 8.32718 50.077C8.53649 50.7772 8.80824 51.4463 9.13108 52.089C11.0355 55.8498 14.8457 58.6262 19.6591 60.0291L25.891 62.9192L34.2124 60.0291C38.9698 58.5725 42.7232 55.683 44.5822 52.089C44.915 51.4426 45.1917 50.7693 45.3968 50.077C45.8118 48.6857 45.5195 47.2327 43.5839 47.2327H37.1264Z" fill="#F78411"/>
<path fill-rule="evenodd" clip-rule="evenodd" d="M34.2124 60.0291H13.079C11.5989 60.0291 10.3955 60.9267 10.3955 62.0222V64.1021C10.3955 65.1971 11.5989 66.0947 13.079 66.0947H41.6689C43.1433 66.0947 44.3524 65.1971 44.3524 64.1021V62.0222C44.3524 61.919 44.3417 61.8127 44.3162 61.7137C44.1168 60.763 43 60.0291 41.6689 60.0291H34.2124Z" fill="#808080"/>
<path fill-rule="evenodd" clip-rule="evenodd" d="M43.5839 47.2327H37.9871C39.917 47.2327 40.2143 48.6857 39.7992 50.077C39.5892 50.7693 39.3182 51.4426 38.9804 52.089C38.6271 52.7771 38.2021 53.4351 37.7153 54.0663C36.8398 55.196 35.7641 56.2262 34.5203 57.1317C34.438 57.1885 34.3564 57.2496 34.2741 57.3065C32.6358 58.4546 30.7207 59.3827 28.6106 60.0291H34.2131C35.2171 59.7212 36.1742 59.3522 37.081 58.9226C40.4655 57.3217 43.1128 54.9259 44.5829 52.089C44.9157 51.4426 45.1924 50.7693 45.3968 50.077C45.4741 49.8301 45.5252 49.5827 45.5458 49.3395C45.6579 48.2177 45.1761 47.2327 43.5839 47.2327Z" fill="#F74311"/>
<path fill-rule="evenodd" clip-rule="evenodd" d="M44.3162 61.7142C44.1168 60.763 43 60.0291 41.6689 60.0291H36.0664C37.4032 60.0291 38.5143 60.763 38.7194 61.7142C38.7399 61.8127 38.7499 61.9195 38.7499 62.0222V64.1021C38.7499 65.1976 37.5415 66.0947 36.0664 66.0947H41.6689C43.1433 66.0947 44.3523 65.1971 44.3523 64.1021V62.0222C44.3516 61.9195 44.3417 61.8127 44.3162 61.7142Z" fill="#666666"/>
<path fill-rule="evenodd" clip-rule="evenodd" d="M90.7209 22.5106C89.9937 21.8562 88.8981 21.4346 87.6742 21.4346H82.3123C84.4834 21.4346 86.2658 22.7575 86.2658 24.3699V33.2381C86.2658 34.8543 84.4834 36.174 82.3123 36.174H87.6742C88.8981 36.174 89.9937 35.7555 90.7209 35.1017C91.2843 34.5921 91.627 33.9457 91.627 33.2381V24.3699C91.627 23.6666 91.2843 23.0165 90.7209 22.5106Z" fill="#C2C7CC"/>
<path fill-rule="evenodd" clip-rule="evenodd" d="M65.8187 22.0389C63.7752 21.6815 61.7268 21.3925 59.6734 21.1645C58.9518 25.994 65.4086 26.9179 65.8187 26.9715V22.0389Z" fill="#808080"/>
<path fill-rule="evenodd" clip-rule="evenodd" d="M38.7186 21.1645C36.6908 21.3925 34.6637 21.6815 32.6301 22.0389V26.9637C33.5163 26.8342 39.4055 25.7771 38.7186 21.1645Z" fill="#808080"/>
<path fill-rule="evenodd" clip-rule="evenodd" d="M65.8184 22.0389C64.559 21.8183 63.2939 21.6246 62.0288 21.4535V25.6934C63.6778 26.6667 65.6034 26.941 65.8184 26.971V22.0389Z" fill="#666666"/>
<path d="M13.1398 38.8367C12.597 39.2294 12.5856 39.8743 13.1149 40.277C13.3838 40.4818 13.7407 40.5845 14.0976 40.5845C14.4432 40.5845 14.7894 40.4887 15.0562 40.2955C17.8 38.3113 16.6761 36.6784 15.9318 35.5976C15.2329 34.5837 14.9441 34.1636 16.4164 33.1355C16.9677 32.7501 16.9947 32.1053 16.4746 31.6962C15.9552 31.2861 15.086 31.2672 14.5347 31.6525C11.5611 33.7288 12.7197 35.4112 13.4867 36.5246C14.1572 37.498 14.4347 37.9007 13.1398 38.8367Z" fill="black"/>
<path d="M20.739 33.3761C20.1962 33.7688 20.1848 34.4137 20.7141 34.8164C20.9831 35.0212 21.34 35.1238 21.6976 35.1238C22.0424 35.1238 22.3887 35.028 22.6554 34.8348C25.4006 32.8496 24.2739 31.2167 23.5282 30.1364C22.8286 29.1225 22.5391 28.7024 24.0106 27.6748C24.5627 27.2895 24.5889 26.6446 24.0695 26.2356C23.5495 25.8255 22.6803 25.8066 22.129 26.1919C19.1553 28.2687 20.3161 29.9511 21.0845 31.0645C21.7557 32.0374 22.0332 32.4401 20.739 33.3761Z" fill="black"/>
<path d="M40.9098 27.6038C41.2652 27.6038 41.62 27.5017 41.8889 27.2979C42.3359 27.0037 44.3347 27.0068 44.776 27.3011C45.311 27.7001 46.1802 27.7022 46.7173 27.3058C47.2551 26.9094 47.258 26.2646 46.7237 25.8655C45.7311 25.1238 44.0346 25.0401 43.3215 25.0401C43.3123 25.0401 43.303 25.0401 43.2938 25.0401C42.6084 25.0422 40.9091 25.1275 39.9292 25.8713C39.3992 26.2735 39.407 26.92 39.9498 27.3132C40.2166 27.5069 40.5635 27.6038 40.9098 27.6038Z" fill="black"/>
<path d="M52.0273 27.6038C52.3828 27.6038 52.7375 27.5017 53.0057 27.2979C53.4527 27.0037 55.4522 27.0068 55.8935 27.3011C56.4278 27.7001 57.297 27.7022 57.8348 27.3058C58.3727 26.9094 58.3755 26.2646 57.8412 25.8655C56.8479 25.1238 55.1521 25.0401 54.439 25.0401C54.4291 25.0401 54.4198 25.0401 54.4113 25.0401C53.7259 25.0422 52.0266 25.1275 51.0467 25.8713C50.5167 26.2735 50.5245 26.92 51.0666 27.3127C51.3341 27.5069 51.6803 27.6038 52.0273 27.6038Z" fill="black"/>
<path d="M49.0224 15.1132C49.7801 15.1132 50.3946 14.6573 50.3946 14.0946V9.41728C50.3946 8.85506 49.7801 8.39917 49.0224 8.39917C48.2639 8.39917 47.6494 8.85506 47.6494 9.41728V14.0946C47.6494 14.6573 48.2639 15.1132 49.0224 15.1132Z" fill="black"/>
<path d="M39.7021 10.5133C38.9443 10.5133 38.3298 10.9692 38.3298 11.5319V16.2056C38.3298 16.7678 38.9443 17.2237 39.7021 17.2237C40.4606 17.2237 41.075 16.7678 41.075 16.2056V11.5319C41.075 10.9692 40.4606 10.5133 39.7021 10.5133Z" fill="black"/>
<path d="M58.3422 17.2237C59.1 17.2237 59.7144 16.7678 59.7144 16.205V11.5314C59.7144 10.9692 59.1 10.5133 58.3422 10.5133C57.5837 10.5133 56.9692 10.9692 56.9692 11.5314V16.205C56.9692 16.7678 57.5837 17.2237 58.3422 17.2237Z" fill="black"/>
<path d="M87.6742 37.1927C90.611 37.1927 93 35.4186 93 33.2382V24.3699C93 22.19 90.611 20.4159 87.6742 20.4159H81.8468C78.9101 20.4159 76.5211 22.19 76.5211 24.3699V33.2382C76.5211 35.4186 78.9101 37.1927 81.8468 37.1927H83.3879V51.4547H82.2513C81.8582 51.4547 81.4765 51.4915 81.1125 51.5605L79.8027 47.4438C78.2807 42.657 72.9223 40.0686 63.8758 39.7506C63.8694 39.7501 63.863 39.7501 63.8566 39.7501C63.1279 39.7322 62.5057 39.6348 61.9558 39.4411C61.9345 39.4337 61.9139 39.4253 61.8919 39.4184C61.237 39.1773 60.6843 38.7941 60.1756 38.2397C60.4679 38.0729 60.7574 37.9023 61.0376 37.7244C65.0061 35.2107 67.1907 32.0216 67.1907 28.7435V22.1868C67.2113 22.0863 67.2106 21.9868 67.1907 21.8905V15.2054C69.7614 13.8072 70.8221 11.8083 70.0345 9.76524C69.0745 7.27471 65.6482 5.53539 61.701 5.53539H57.8291C56.635 3.49127 54.0381 2.16046 50.6955 1.92304C46.6426 1.63561 42.6983 3.07066 40.6151 5.53539H36.9163C32.9124 5.53539 29.4357 7.30051 28.4615 9.82789C27.6832 11.8488 28.7248 13.824 31.2578 15.2048V26.9505V26.96V29.272C31.2578 32.7059 34.0775 35.4076 36.4431 37.0684C37.01 37.4669 37.6103 37.846 38.2332 38.2039C37.7138 38.7799 37.1491 39.1763 36.475 39.4226C36.4729 39.4237 36.4715 39.4242 36.4693 39.4247C35.9074 39.6295 35.2702 39.7316 34.5202 39.7501C34.5138 39.7501 34.5075 39.7506 34.5011 39.7506C33.1125 39.7996 31.8112 39.9022 30.5972 40.058C30.5923 40.0586 30.5873 40.0591 30.5823 40.0601C24.608 40.8292 20.7489 42.8918 19.0737 46.2146H4.63964C2.08106 46.2146 0 47.7613 0 49.6627C0 51.5621 2.08106 53.1077 4.63964 53.1077H8.20718C9.57941 55.475 11.7023 57.4912 14.4135 59.011H13.0788C10.8424 59.011 9.02314 60.3618 9.02314 62.0222V64.1021C9.02314 65.7625 10.8424 67.1133 13.0788 67.1133H21.1186C21.8763 67.1133 22.4908 66.6574 22.4908 66.0952C22.4908 65.5324 21.8763 65.0765 21.1186 65.0765H13.0788C12.3558 65.0765 11.7683 64.6396 11.7683 64.1021V62.0222C11.7683 61.4847 12.3565 61.0478 13.0788 61.0478H41.6681C42.2989 61.0478 42.8267 61.3805 42.9516 61.8227C42.9559 61.8564 42.963 61.8895 42.9722 61.9227C42.9772 61.9553 42.9793 61.9885 42.9793 62.0222V64.1021C42.9793 64.6396 42.3911 65.0765 41.6681 65.0765H27.371C26.6132 65.0765 25.9987 65.5324 25.9987 66.0952C25.9987 66.6574 26.6132 67.1133 27.371 67.1133H41.6681C43.9052 67.1133 45.7245 65.7625 45.7245 64.1021V62.7323H77.6578C77.7727 64.5422 79.7885 65.9878 82.2506 65.9878H84.7602C88.6796 65.9878 91.8683 63.6204 91.8683 60.7103V56.7321C91.8683 54.171 89.3977 52.0306 86.1324 51.5547V37.1927H87.6742ZM77.1306 47.9118L78.6646 52.7355C78.0324 53.3203 77.6528 54.0621 77.6528 54.8691V60.6956H73.7489L71.5047 51.0535C71.2272 49.8259 70.2772 48.901 68.9936 48.5167V42.3254C73.5375 43.1887 76.216 45.0344 77.1306 47.9118ZM66.2485 41.9453V48.3214H62.7306V41.7147C63.0548 41.7521 63.3954 41.7763 63.7551 41.7852C64.63 41.8163 65.4594 41.8705 66.2485 41.9453ZM53.3626 48.3214C52.6559 47.0843 51.0041 46.2146 49.0834 46.2146H38.4986V43.1108C41.1168 44.5285 44.9149 45.1618 48.2433 45.2565C48.5342 45.2649 48.8308 45.2691 49.1317 45.2691C52.7538 45.2691 57.0366 44.6522 59.9854 43.0223V48.3214H53.3626ZM46.737 50.2971C46.9626 49.5395 46.9924 48.8452 46.8335 48.2508H49.0834C50.1307 48.2508 50.9828 48.8841 50.9828 49.6627C50.9828 50.4392 50.1307 51.0704 49.0834 51.0704H46.4752C46.571 50.8151 46.6589 50.5576 46.737 50.2971ZM64.4455 22.8533V25.5981C63.0669 25.1548 61.2938 24.2268 61.0284 22.36C62.1693 22.5038 63.3089 22.6685 64.4455 22.8533ZM37.3619 22.3611C37.0973 24.1862 35.3844 25.1164 34.003 25.5739V22.8512C35.1205 22.6675 36.2409 22.5043 37.3619 22.3611ZM34.003 29.272V27.7449C34.8537 27.539 36.0152 27.1742 37.1022 26.5515C38.5064 25.7481 40.0773 24.3394 40.1447 22.0473C42.2123 21.8452 44.2777 21.7115 46.3276 21.6494C47.0854 21.6267 47.6743 21.1524 47.6438 20.5907C47.6125 20.0285 46.9697 19.5937 46.2162 19.6142C43.6924 19.6905 41.1473 19.8706 38.6022 20.1506C38.5908 20.1511 38.5795 20.1511 38.5681 20.1522C38.5192 20.1564 38.4716 20.1622 38.4241 20.1696C36.949 20.3349 35.4738 20.5339 34.0023 20.7665V14.6652C34.0023 14.3136 33.7582 13.9867 33.3552 13.8008C31.4018 12.898 30.6008 11.6862 31.1017 10.3875C31.6402 8.98876 33.8107 7.57214 36.9163 7.57214H41.4119C41.9271 7.57214 42.3989 7.35841 42.6338 7.01834C44.2806 4.63415 47.7367 3.75922 50.4337 3.95084C52.9993 4.13299 54.9115 5.21217 55.5487 6.8383C55.719 7.27313 56.2561 7.57214 56.867 7.57214H61.701C64.884 7.57214 66.8835 8.99982 67.3943 10.3259C67.8953 11.6267 67.0566 12.8933 65.0926 13.8008C64.6896 13.9867 64.4455 14.3136 64.4455 14.6652V20.7671C62.9661 20.5365 61.4825 20.3407 59.9989 20.1759C59.9421 20.1659 59.8839 20.1569 59.8243 20.1522C59.8059 20.1506 59.7874 20.1506 59.769 20.1496C57.4566 19.8985 55.145 19.7258 52.851 19.6379C52.0975 19.6084 51.4483 20.0406 51.4093 20.6023C51.3702 21.164 51.9528 21.643 52.7098 21.672C54.5461 21.742 56.3952 21.871 58.247 22.0505C58.313 24.4415 60.0067 25.8776 61.5194 26.6857C62.5667 27.2448 63.6508 27.5733 64.4455 27.7601V28.7435C64.4455 31.4157 62.6022 34.0552 59.2553 36.1756C56.2809 38.0592 52.387 39.3142 49.0948 39.4505C49.0146 39.4537 48.9316 39.4558 48.8457 39.4558C46.92 39.4553 43.8151 38.6246 40.8904 37.1248C40.8457 37.0984 40.7982 37.0748 40.7499 37.0527C39.9162 36.6183 39.0996 36.1293 38.3304 35.5892C36.3565 34.2031 34.003 31.9816 34.003 29.272ZM48.8464 41.4925C48.9819 41.4925 49.1161 41.4894 49.2466 41.4841C52.0585 41.3678 55.1187 40.6097 57.9015 39.3842C58.3059 39.8253 58.8054 40.2649 59.4341 40.645C57.1934 42.5712 52.4445 43.3377 48.349 43.2213C44.0926 43.1003 40.513 42.0921 38.952 40.6397C39.5863 40.2544 40.0879 39.809 40.4945 39.3626C43.3844 40.6792 46.4659 41.4925 48.8464 41.4925ZM34.6217 41.7858C35.0219 41.7752 35.3979 41.7458 35.7541 41.701V46.2146H32.2362V41.9347C32.9926 41.8658 33.7866 41.8152 34.6217 41.7858ZM29.4911 42.3048V46.2146H22.0679C23.3947 44.2731 25.8504 42.9781 29.4911 42.3048ZM4.63964 51.0704C3.59521 51.0704 2.74519 50.4392 2.74519 49.6627C2.74519 48.8841 3.59521 48.2508 4.63964 48.2508H6.89099C6.73135 48.8452 6.76115 49.5395 6.98678 50.2971V50.2986C7.06483 50.5592 7.15352 50.8161 7.24718 51.0704H4.63964ZM19.9244 59.011C14.6682 57.4144 10.9368 54.0884 9.6674 49.8575C9.43467 49.0779 9.54394 48.524 9.74332 48.3393C9.77241 48.313 9.8391 48.2514 10.1392 48.2514H20.0592H20.0642H20.0685H43.5838C43.8861 48.2514 43.9535 48.313 43.9819 48.3393C44.1805 48.523 44.2884 49.0763 44.0564 49.857C42.8303 53.9663 39.0563 57.3744 33.9349 59.011H19.9244ZM45.3087 60.6956C44.6467 59.6985 43.2638 59.011 41.6688 59.011H39.3011C41.9895 57.4733 44.1266 55.4424 45.5017 53.1071H49.0834C51.3241 53.1071 53.1987 51.9253 53.6337 50.3576H67.6207C68.5367 50.3576 68.773 51.2846 68.7978 51.3952L70.9633 60.6956H45.3087ZM89.1231 56.7321V60.7103C89.1231 62.497 87.1662 63.951 84.7602 63.951H82.2513C81.2288 63.951 80.3973 63.3314 80.3973 62.5697V54.8691C80.3973 54.4485 80.6527 54.0721 81.0536 53.8194C81.0664 53.812 81.0784 53.8046 81.0905 53.7968C81.4083 53.6062 81.8121 53.4914 82.2506 53.4914H84.7602C87.1662 53.4914 89.1231 54.9454 89.1231 56.7321ZM79.2656 33.2382V24.3699C79.2656 23.3129 80.4235 22.4527 81.8468 22.4527H87.6742C89.0969 22.4527 90.2548 23.3129 90.2548 24.3699V33.2382C90.2548 34.2957 89.0969 35.1559 87.6742 35.1559H81.8468C80.4235 35.1559 79.2656 34.2957 79.2656 33.2382Z" fill="black"/>
</g>
<defs>
<clipPath id="clip0">
<rect width="93" height="69" fill="white"/>
</clipPath>
</defs>
</svg>
